<svg width="81" height="81" viewBox="0 0 81 81" fill="none" xmlns="http://www.w3.org/2000/svg">
<g clip-path="url(#clip0_1_1969)">
<path d="M40.5106 0C18.1599 0 0 18.1599 0 40.5106C0 62.8401 18.1599 81.0212 40.5106 81.0212C62.8613 81.0212 81.0212 62.8613 81.0212 40.5106C81 18.1599 62.8401 0 40.5106 0ZM40.5106 78.4602C19.578 78.4602 2.53985 61.4432 2.53985 40.5106C2.53985 19.578 19.578 2.53985 40.5106 2.53985C61.4432 2.53985 78.4814 19.578 78.4814 40.5106C78.4814 61.4432 61.4432 78.4602 40.5106 78.4602Z" fill="white"/>
<path d="M34.2462 40.4679C34.3943 39.8753 34.0133 39.2827 33.4207 39.1345C32.5741 38.9229 31.3253 37.0815 31.4312 36.1714C31.4947 35.5788 31.0714 35.0285 30.4787 34.9438C29.8649 34.8803 29.3358 35.3036 29.2511 35.8962C28.9971 37.9069 30.9867 40.8066 32.9127 41.2722C32.9974 41.2934 33.0821 41.2934 33.1667 41.2934C33.6747 41.3146 34.1192 40.9759 34.2462 40.4679Z" fill="white"/>
<path d="M51.4322 53.8236C51.2205 53.8236 51.0089 53.8447 50.7972 53.8659L47.8552 46.6062C49.2945 45.7807 50.6067 44.7013 51.7497 43.4102C54.3953 40.3835 55.9193 36.3621 55.9193 32.3618C55.9193 31.748 55.4324 31.2612 54.8187 31.2612H25.4834C24.8696 31.2612 24.3828 31.748 24.3828 32.3618C24.3828 33.0815 24.4252 33.8011 24.531 34.5207H19.7899C19.1761 34.5207 18.6893 35.0075 18.6893 35.6213C18.6893 36.2351 19.1761 36.7219 19.7899 36.7219H24.9755C25.6527 39.1771 26.8803 41.5053 28.5524 43.4102C29.653 44.6589 30.9229 45.7172 32.3198 46.5215L26.203 62.1204C25.9914 62.6919 26.2665 63.3268 26.8168 63.5385C26.9438 63.5808 27.092 63.6232 27.219 63.6232C27.6635 63.6232 28.0656 63.348 28.2349 62.9247L29.6318 59.3901H46.416C46.7546 61.7818 48.8712 63.6232 51.411 63.6232C54.1837 63.6232 56.4484 61.4219 56.4484 58.7128C56.4696 56.0248 54.2049 53.8236 51.4322 53.8236ZM30.2245 41.9498C28.1503 39.6004 26.8803 36.5526 26.6475 33.4413H53.6969C53.4429 36.5526 52.173 39.6004 50.1199 41.9498C49.1887 43.008 47.8552 44.1933 46.0985 45.0611H46.0773C46.0139 45.0822 45.9715 45.1034 45.9292 45.1457C44.363 45.8865 42.4581 46.3945 40.1934 46.3945C37.8652 46.3945 35.918 45.8654 34.3306 45.0822C34.2671 45.0399 34.2036 45.0188 34.1401 44.9764C32.4045 44.1298 31.1346 42.9869 30.2245 41.9498ZM34.3094 47.4951C36.1296 48.2147 38.098 48.6169 40.151 48.6169C42.1617 48.6169 44.0878 48.2571 45.8657 47.5586L48.7019 54.6067C47.7282 55.1993 47.0086 56.1306 46.6276 57.1889H30.4996L34.3094 47.4951ZM51.4322 61.422C49.866 61.422 48.596 60.2155 48.596 58.7128C48.596 57.2312 49.866 56.0036 51.4322 56.0036C52.9984 56.0036 54.2684 57.21 54.2684 58.7128C54.2684 60.2155 52.9984 61.422 51.4322 61.422Z" fill="white"/>
<path d="M31.3462 27.7269C30.8382 28.0656 30.7112 28.764 31.0711 29.2508C31.2827 29.5683 31.6214 29.7376 31.9812 29.7376C32.1928 29.7376 32.4045 29.6741 32.595 29.5471C36.1931 27.0919 34.5633 24.4251 33.7802 23.1552C32.9124 21.7583 32.5526 20.954 34.3305 19.7264C34.8385 19.3877 34.9655 18.6893 34.6057 18.2025C34.267 17.6945 33.5686 17.5675 33.0818 17.9273C29.4837 20.3825 31.1134 23.0493 31.8965 24.3193C32.7643 25.7162 33.1241 26.5205 31.3462 27.7269Z" fill="white"/>
<path d="M46.141 27.7269C45.633 28.0656 45.506 28.764 45.8659 29.2508C46.0775 29.5683 46.4162 29.7376 46.776 29.7376C46.9876 29.7376 47.1993 29.6741 47.3898 29.5471C50.9879 27.0919 49.3581 24.4251 48.575 23.1552C47.7072 21.7583 47.3474 20.954 49.1253 19.7264C49.6333 19.3877 49.7603 18.6893 49.4005 18.2025C49.0618 17.6945 48.3634 17.5675 47.8766 17.9273C44.2785 20.3825 45.9082 23.0493 46.6913 24.3193C47.5591 25.7162 47.9189 26.5205 46.141 27.7269Z" fill="white"/>
<path d="M37.9284 27.7269C37.4204 28.0655 37.2934 28.764 37.6532 29.2508C37.8649 29.5683 38.2035 29.7376 38.5633 29.7376C38.775 29.7376 38.9867 29.6741 39.1771 29.5471C43.77 26.3935 41.6747 22.9858 40.6799 21.3561C39.4311 19.3242 38.8808 17.9696 41.5477 16.1282C42.0556 15.7896 42.1826 15.0911 41.8228 14.6043C41.4842 14.0964 40.7857 13.9694 40.2989 14.3292C35.706 17.4828 37.8014 20.8905 38.7962 22.5202C40.0449 24.5309 40.6164 25.9067 37.9284 27.7269Z" fill="white"/>
</g>
<defs>
<clipPath id="clip0_1_1969">
<rect width="81" height="81" fill="white"/>
</clipPath>
</defs>
</svg>
