<svg width="121" height="105" viewBox="0 0 121 105" fill="none" xmlns="http://www.w3.org/2000/svg">
<g clip-path="url(#clip0_1_1033)">
<path d="M30.734 104.692C30.5138 104.681 30.2993 104.617 30.1082 104.507C29.917 104.397 29.7546 104.244 29.634 104.059L0.150024 52.977C0.0510658 52.7812 -0.000488281 52.5649 -0.000488281 52.3455C-0.000488281 52.1261 0.0510658 51.9098 0.150024 51.714L29.643 0.629025C29.7639 0.444885 29.9265 0.291861 30.1176 0.182392C30.3088 0.0729236 30.523 0.0100987 30.743 -0.000976562H89.724C89.944 0.0100987 90.1583 0.0729236 90.3494 0.182392C90.5406 0.291861 90.7032 0.444885 90.824 0.629025L120.317 51.714C120.416 51.9098 120.468 52.1261 120.468 52.3455C120.468 52.5649 120.416 52.7812 120.317 52.977L90.824 104.058C90.704 104.243 90.5416 104.397 90.3504 104.507C90.1591 104.617 89.9444 104.68 89.724 104.691L30.734 104.692Z" fill="url(#paint0_linear_1_1033)"/>
<path d="M34.639 96.6719L9.04602 52.3519L34.639 8.02393H85.823L111.416 52.3519L85.823 96.6719H34.639Z" fill="url(#paint1_linear_1_1033)"/>
<path d="M89.612 1.45703H30.855L1.474 52.348L30.855 103.233H89.617L118.998 52.348L89.612 1.45703ZM86.397 97.668H34.065L7.896 52.348L34.065 7.02503H86.397L112.566 52.348L86.397 97.668Z" fill="url(#paint2_linear_1_1033)"/>
<path d="M86.397 7.0249H34.065L7.896 52.3479L34.065 97.6679H86.397L112.566 52.3479L86.397 7.0249ZM85.823 96.6709H34.64L9.045 52.3479L34.64 8.0189H85.823L111.415 52.3479L85.823 96.6709Z" fill="url(#paint3_linear_1_1033)"/>
<path d="M86.397 7.0249H34.065L7.896 52.3479L34.065 97.6679H86.397L112.566 52.3479L86.397 7.0249ZM85.823 96.6709H34.64L9.045 52.3479L34.64 8.0189H85.823L111.415 52.3479L85.823 96.6709Z" fill="url(#paint4_linear_1_1033)"/>
<g style="mix-blend-mode:multiply">
<path d="M85.97 8.31004L111.405 52.366L111.416 52.347L85.823 8.01904H34.638L9.04602 52.352L9.20302 52.624L34.784 8.31504L85.97 8.31004Z" fill="#C79858"/>
</g>
<path d="M34.784 96.9642H85.969L111.562 52.6392L111.405 52.3672L85.824 96.6722H34.639L9.20302 52.6192L9.19202 52.6382L34.784 96.9642Z" fill="url(#paint5_linear_1_1033)"/>
<g style="mix-blend-mode:screen">
<g style="mix-blend-mode:screen">
<path d="M56.6261 29.8239H54.0771V37.1439H53.1091V29.8239H50.5601V28.9609H56.6271L56.6261 29.8239Z" fill="#AE9557"/>
</g>
<g style="mix-blend-mode:screen">
<path d="M62.7281 33.3899H58.7971V37.1429H57.8291V28.9609H58.7971V32.5239H62.7281V28.9609H63.6961V37.1439H62.7281V33.3899Z" fill="#AE9557"/>
</g>
<g style="mix-blend-mode:screen">
<path d="M65.6841 28.9609H70.1361V29.8239H66.6521V32.5009H69.8441V33.3669H66.6521V36.2739H70.1981V37.1429H65.6871L65.6841 28.9609Z" fill="#AE9557"/>
</g>
</g>
<g style="mix-blend-mode:screen">
<g style="mix-blend-mode:screen">
<path d="M35.7841 53.1913C35.7897 53.4466 35.756 53.7012 35.6841 53.9463C35.3178 53.8681 34.946 53.8186 34.5721 53.7983C34.1591 56.6293 30.9631 60.3833 28.2071 61.0853C23.8991 60.9853 21.9861 58.9063 21.9861 54.3853C21.9861 47.7513 27.2861 41.3853 32.9481 41.3853C35.1481 41.3853 36.4851 42.3793 36.4851 44.0693C36.4553 44.6901 36.2851 45.2961 35.9873 45.8417C35.6896 46.3873 35.272 46.8583 34.7661 47.2193C34.3994 47.1173 34.0677 46.9169 33.8068 46.6397C33.5459 46.3626 33.3658 46.0194 33.2861 45.6473C34.4021 44.8233 34.7861 44.2663 34.7861 43.3213C34.7861 42.5963 34.3041 42.2093 33.4541 42.2093C32.0271 42.2093 30.2851 43.3473 28.6151 45.3553C26.2998 48.0009 25.0725 51.4252 25.1801 54.9393C25.1801 57.7443 26.3871 59.7323 27.9131 59.8773C29.9701 59.4183 32.2471 56.3403 32.5131 54.0173C31.7051 54.2359 30.8774 54.3733 30.0421 54.4273C29.6052 54.4544 29.1716 54.3366 28.8086 54.0921C28.4455 53.8477 28.1733 53.4902 28.0341 53.0753C30.0681 52.2282 32.2248 51.713 34.4221 51.5493C35.2731 51.5473 35.7841 52.1543 35.7841 53.1913Z" fill="#AE9557"/>
</g>
<g style="mix-blend-mode:screen">
<path d="M38.852 56.4141C38.852 56.6081 38.829 56.8241 38.829 57.0411C38.829 57.8651 39.023 58.9801 39.941 58.9801C41.686 58.9801 43.353 57.2381 44.37 56.1491C44.5195 56.2723 44.6568 56.4096 44.78 56.5591C43.6075 58.2656 41.9076 59.5404 39.941 60.1881C38.985 60.1563 38.0796 59.751 37.4189 59.0593C36.7583 58.3676 36.395 57.4446 36.407 56.4881C36.407 52.5181 40.039 47.8491 43.235 47.8491C44.0816 48.0196 44.828 48.5141 45.315 49.2271C45.073 53.1921 42.967 54.7701 38.852 56.4141ZM39.046 55.4951C41.612 54.2121 43.525 52.2271 43.646 50.0261C41.877 50.2651 39.82 52.4931 39.045 55.4951H39.046Z" fill="#AE9557"/>
</g>
<g style="mix-blend-mode:screen">
<path d="M52.3571 49.8283C51.6291 51.5963 49.0891 55.0353 48.8961 56.5083C49.9131 55.4223 51.5571 53.3883 52.1151 52.8083C53.3491 51.5023 55.6261 49.1083 57.1971 49.1083C57.5748 49.1519 57.9338 49.2965 58.2363 49.5268C58.5388 49.7572 58.7736 50.0648 58.9161 50.4173C58.9161 50.4863 58.6471 50.5173 58.2161 51.0173C57.3431 52.1593 55.6991 55.3513 55.6991 57.3363C55.6991 58.1363 55.9161 58.2813 56.2991 58.2813C56.6371 58.2813 57.0991 58.0383 57.3161 58.0383C57.4496 58.1654 57.5276 58.34 57.5331 58.5243C56.9438 59.0391 56.2242 59.382 55.4531 59.5153C53.5891 59.5153 53.1531 58.3803 53.1531 56.9493C53.1531 56.1493 53.3731 55.1583 54.4851 52.5953C53.7516 52.9294 53.0863 53.3967 52.5231 53.9733C51.0865 55.358 49.7825 56.8739 48.6281 58.5013C48.1919 59.2335 47.6439 59.8932 47.0041 60.4563C46.6947 60.2394 46.4354 59.9588 46.2436 59.6333C46.0518 59.3078 45.9319 58.945 45.8921 58.5693C46.1464 56.3483 46.759 54.1832 47.7061 52.1583C48.9401 49.3273 50.0781 47.6303 50.3471 47.5093C50.831 47.7257 51.2617 48.0455 51.609 48.4461C51.9562 48.8467 52.2115 49.3185 52.3571 49.8283Z" fill="#AE9557"/>
</g>
<g style="mix-blend-mode:screen">
<path d="M65.3001 56.7511C65.2941 56.4569 65.3349 56.1636 65.4211 55.8821C65.1551 55.8591 63.4131 58.3491 62.8821 58.9821C62.6088 59.321 62.2497 59.5803 61.8421 59.7331C61.2637 59.7169 60.7033 59.5284 60.2328 59.1917C59.7623 58.8549 59.403 58.3854 59.2011 57.8431C59.1836 57.1519 59.2508 56.4611 59.4011 55.7861C59.9821 53.3421 61.7011 49.2501 63.7321 47.7741C64.5182 47.7579 65.2838 48.026 65.8881 48.5291C64.6148 50.2449 63.5806 52.1258 62.8141 54.1201C62.3119 55.3267 61.9681 56.5933 61.7911 57.8881C61.7888 58.0503 61.8502 58.2068 61.9621 58.3241C62.4441 58.1241 63.0971 57.3301 64.4291 55.5121C65.3802 54.3536 66.1765 53.0762 66.7981 51.7121C67.1722 50.5015 67.8199 49.3932 68.6911 48.4731C69.5215 48.4744 70.3288 48.7461 70.9911 49.2471C69.8031 52.0821 67.9431 54.7921 67.9431 57.3311C67.9826 58.1 68.1626 58.8551 68.4741 59.5591C68.4741 59.6311 68.3741 59.6591 68.3741 59.6591C67.5487 59.5137 66.7643 59.1924 66.0741 58.7171C65.8173 58.4599 65.6161 58.1527 65.483 57.8145C65.3498 57.4763 65.2876 57.1144 65.3001 56.7511Z" fill="#AE9557"/>
</g>
<g style="mix-blend-mode:screen">
<path d="M72.1741 53.0275C72.3181 52.3945 73.0201 49.8815 74.4741 49.1525C75.3838 49.4131 76.1776 49.9756 76.7251 50.7475C75.2521 52.3945 74.8151 54.1175 73.9921 56.2475C73.6299 57.0904 73.385 57.979 73.2641 58.8885C73.2641 59.4695 73.2641 59.6885 73.1201 59.6885C72.6453 59.5781 72.218 59.3191 71.9006 58.9491C71.5831 58.5792 71.392 58.1176 71.3551 57.6315C71.5074 56.0778 71.7813 54.5384 72.1741 53.0275ZM76.0461 46.6825C75.8599 46.4572 75.7568 46.1747 75.7541 45.8825C75.8595 44.7957 76.1122 43.7282 76.5051 42.7095C77.6444 42.9304 78.6757 43.5294 79.4321 44.4095C78.4136 45.4387 77.4982 46.565 76.6991 47.7725C76.3121 47.7035 75.9711 47.3885 75.9711 47.1195C75.9798 46.9715 76.0046 46.825 76.0451 46.6825H76.0461Z" fill="#AE9557"/>
</g>
<g style="mix-blend-mode:screen">
<path d="M82.965 49.8283C82.24 51.5963 79.697 55.0353 79.504 56.5083C80.521 55.4223 82.168 53.3883 82.723 52.8083C83.957 51.5023 86.234 49.1083 87.809 49.1083C88.1862 49.1524 88.5445 49.2972 88.8465 49.5275C89.1484 49.7579 89.3828 50.0652 89.525 50.4173C89.525 50.4863 89.259 50.5173 88.825 51.0173C87.956 52.1593 86.309 55.3513 86.309 57.3363C86.309 58.1363 86.529 58.2813 86.909 58.2813C87.25 58.2813 87.709 58.0383 87.926 58.0383C88.06 58.1653 88.139 58.3398 88.146 58.5243C87.5556 59.0392 86.835 59.382 86.063 59.5153C84.199 59.5153 83.763 58.3803 83.763 56.9493C83.763 56.1493 83.983 55.1583 85.098 52.5953C84.364 52.9286 83.6986 53.3959 83.136 53.9733C81.6969 55.357 80.3912 56.873 79.236 58.5013C78.8005 59.2332 78.2536 59.8927 77.615 60.4563C77.3051 60.2396 77.0451 59.9591 76.8527 59.6336C76.6602 59.3082 76.5396 58.9452 76.499 58.5693C76.755 56.3482 77.369 54.1832 78.317 52.1583C79.551 49.3273 80.689 47.6303 80.955 47.5093C81.4393 47.7252 81.8703 48.0448 82.2176 48.4455C82.5649 48.8462 82.82 49.3182 82.965 49.8283Z" fill="#AE9557"/>
</g>
<g style="mix-blend-mode:screen">
<path d="M92.3041 56.4141C92.3041 56.6081 92.2811 56.8241 92.2811 57.0411C92.2811 57.8651 92.4751 58.9801 93.3931 58.9801C95.1381 58.9801 96.8091 57.2381 97.8221 56.1491C97.9716 56.2723 98.1088 56.4096 98.232 56.5591C97.0602 58.2663 95.3601 59.5413 93.3931 60.1881C92.4371 60.1563 91.5316 59.751 90.8709 59.0593C90.2103 58.3676 89.847 57.4446 89.8591 56.4881C89.8591 52.5181 93.491 47.8491 96.687 47.8491C97.5336 48.0196 98.28 48.5141 98.7671 49.2271C98.5231 53.1921 96.4201 54.7701 92.3041 56.4141ZM92.4981 55.4951C95.0671 54.2121 96.9771 52.2271 97.0981 50.0261C95.3311 50.2651 93.273 52.4931 92.496 55.4951H92.4981Z" fill="#AE9557"/>
</g>
</g>
<g style="mix-blend-mode:screen">
<g style="mix-blend-mode:screen">
<path d="M38.3601 71.3542C38.2867 70.2398 38.5919 69.1334 39.2261 68.2142C39.5206 67.8488 39.8982 67.5591 40.3272 67.369C40.7563 67.1789 41.2246 67.0939 41.6931 67.1212C42.2069 67.1085 42.717 67.211 43.1861 67.4212C43.6 67.6181 43.9595 67.9134 44.2331 68.2812C44.5241 68.6801 44.7328 69.1329 44.8471 69.6132C44.9853 70.1824 45.0525 70.7665 45.0471 71.3522C45.1212 72.4667 44.8133 73.5732 44.1741 74.4892C43.8763 74.8542 43.4964 75.1435 43.0653 75.3335C42.6343 75.5234 42.1644 75.6087 41.6941 75.5822C41.184 75.5934 40.6781 75.4892 40.2141 75.2772C39.8019 75.0792 39.444 74.784 39.1711 74.4172C38.8814 74.0175 38.6728 73.565 38.5571 73.0852C38.42 72.5186 38.3539 71.9371 38.3601 71.3542ZM39.3871 71.3542C39.3859 71.7855 39.4311 72.2156 39.5221 72.6372C39.6015 73.0143 39.7424 73.3758 39.9391 73.7072C40.1164 74.0062 40.363 74.2583 40.6581 74.4422C40.9695 74.6332 41.3299 74.7291 41.6951 74.7182C42.0251 74.7304 42.3531 74.6618 42.6504 74.5181C42.9478 74.3745 43.2055 74.1603 43.4011 73.8942C43.8697 73.1343 44.0857 72.2454 44.0181 71.3552C44.0205 70.9239 43.9753 70.4936 43.8831 70.0722C43.8055 69.6922 43.6634 69.3283 43.4631 68.9962C43.2816 68.6983 43.0334 68.4467 42.7381 68.2612C42.424 68.0713 42.062 67.9755 41.6951 67.9852C41.3669 67.973 41.0408 68.0418 40.7455 68.1855C40.4503 68.3292 40.1949 68.5434 40.0021 68.8092C39.5366 69.5726 39.3215 70.4625 39.3871 71.3542ZM45.9331 77.4402C45.7543 77.4945 45.5708 77.532 45.3851 77.5522C45.2064 77.572 45.0268 77.582 44.8471 77.5822C44.4641 77.5836 44.0822 77.543 43.7081 77.4612C43.3371 77.3792 42.9801 77.2872 42.6321 77.1922C42.2841 77.0972 41.9531 77.0052 41.6321 76.9232C41.3354 76.8448 41.03 76.8042 40.7231 76.8022C40.5415 76.8012 40.3606 76.8245 40.1851 76.8712V76.0182C40.2931 75.9955 40.3981 75.9759 40.5001 75.9592C40.6043 75.943 40.7096 75.9353 40.8151 75.9362C41.1434 75.9372 41.4704 75.9779 41.7891 76.0572C42.1141 76.1422 42.4451 76.2282 42.7801 76.3262C43.1151 76.4242 43.4561 76.5132 43.8071 76.5952C44.1709 76.6779 44.543 76.7185 44.9161 76.7162C45.2584 76.7174 45.5997 76.6788 45.9331 76.6012V77.4402Z" fill="#AE9557"/>
</g>
<g style="mix-blend-mode:screen">
<path d="M51.396 67.2632H52.328V72.7192C52.3379 73.1513 52.2736 73.5818 52.138 73.9922C52.0267 74.3268 51.8379 74.6304 51.587 74.8782C51.3425 75.1098 51.0484 75.2825 50.727 75.3832C50.3683 75.4958 49.994 75.5511 49.618 75.5472C48.8341 75.6061 48.0561 75.3736 47.433 74.8942C47.173 74.6363 46.9723 74.3249 46.8449 73.9816C46.7174 73.6382 46.6663 73.2713 46.695 72.9062V67.2632H47.666V72.4532C47.6581 72.8048 47.6988 73.1558 47.787 73.4962C47.8537 73.7514 47.9794 73.9874 48.154 74.1852C48.3218 74.3637 48.5336 74.4951 48.768 74.5662C49.0469 74.6497 49.337 74.6895 49.6281 74.6842C49.8794 74.7088 50.1331 74.6745 50.3688 74.5839C50.6046 74.4932 50.8159 74.3489 50.986 74.1622C51.3034 73.6516 51.4472 73.0522 51.396 72.4532V67.2632Z" fill="#AE9557"/>
</g>
<g style="mix-blend-mode:screen">
<path d="M58.2 73.1763H55.2L54.386 75.4433H53.415L56.515 67.1323H56.958L60.068 75.4433H59.041L58.2 73.1763ZM55.513 72.3333H57.913L57.004 69.8463L56.715 68.6063H56.702L56.41 69.8693L55.513 72.3333Z" fill="#AE9557"/>
</g>
<g style="mix-blend-mode:screen">
<path d="M65.9921 75.4392H61.1561V67.2632H62.1241V74.5802H65.9921V75.4392Z" fill="#AE9557"/>
</g>
<g style="mix-blend-mode:screen">
<path d="M67.42 67.2632H68.391V75.4392H67.42V67.2632Z" fill="#AE9557"/>
</g>
<g style="mix-blend-mode:screen">
<path d="M75.882 68.1233H73.336V75.4393H72.365V68.1193H69.816V67.2593H75.883L75.882 68.1233Z" fill="#AE9557"/>
</g>
<g style="mix-blend-mode:screen">
<path d="M78.745 72.1912L76.045 67.2632H77.18L79.101 70.8392L79.301 71.5542H79.3111L79.528 70.8192L81.365 67.2662H82.3951L79.718 72.1872V75.4392H78.747L78.745 72.1912Z" fill="#AE9557"/>
</g>
</g>
<path d="M56.4801 29.5349H53.9311V36.8519H52.9631V29.5349H50.4141V28.6689H56.4811L56.4801 29.5349Z" fill="url(#paint6_linear_1_1033)"/>
<path d="M62.5811 33.0949H58.6541V36.8519H57.6831V28.6689H58.6541V32.2319H62.5811V28.6689H63.5521V36.8519H62.5811V33.0949Z" fill="url(#paint7_linear_1_1033)"/>
<path d="M65.54 28.6689H69.992V29.5349H66.508V32.2079H69.7V33.0739H66.508V35.9839H70.051V36.8499H65.54V28.6689Z" fill="url(#paint8_linear_1_1033)"/>
<path d="M35.6371 52.9018C35.641 53.1557 35.6073 53.4088 35.5371 53.6528C35.1695 53.5746 34.7964 53.5251 34.4211 53.5048C34.0111 56.3358 30.8151 60.0898 28.0561 60.7918C23.7481 60.6918 21.8351 58.6128 21.8351 54.0918C21.8351 47.4578 27.1351 41.0918 32.8001 41.0918C35.0001 41.0918 36.3341 42.0858 36.3341 43.7788C36.3045 44.3991 36.1344 45.0046 35.8367 45.5496C35.5389 46.0946 35.1212 46.5648 34.6151 46.9248C34.2487 46.8231 33.9173 46.6227 33.657 46.3455C33.3967 46.0683 33.2175 45.7249 33.1391 45.3528C34.2511 44.5288 34.6391 43.9718 34.6391 43.0268C34.6391 42.3018 34.1531 41.9148 33.3071 41.9148C31.8801 41.9148 30.1341 43.0528 28.4681 45.0608C26.1506 47.7053 24.922 51.1302 25.0301 54.6448C25.0301 57.4498 26.2411 59.4378 27.7631 59.5828C29.8201 59.1238 32.0971 56.0488 32.3631 53.7258C31.5561 53.9428 30.7298 54.0801 29.8961 54.1358C29.4587 54.1614 29.0251 54.0426 28.6618 53.7978C28.2985 53.553 28.0256 53.1957 27.8851 52.7808C29.9203 51.9348 32.078 51.421 34.2761 51.2588C35.1291 51.2588 35.6371 51.8588 35.6371 52.9018Z" fill="url(#paint9_linear_1_1033)"/>
<path d="M38.708 56.1217C38.708 56.3157 38.685 56.5317 38.685 56.7487C38.685 57.5727 38.879 58.6877 39.797 58.6877C41.539 58.6877 43.209 56.9457 44.223 55.8567C44.3726 55.9808 44.5108 56.118 44.636 56.2667C43.4635 57.9732 41.7636 59.248 39.797 59.8957C38.8408 59.8646 37.9349 59.4596 37.2741 58.7678C36.6132 58.0759 36.2502 57.1524 36.263 56.1957C36.263 52.2257 39.892 47.5537 43.087 47.5537C43.9345 47.7239 44.6813 48.2197 45.167 48.9347C44.926 52.9027 42.823 54.4747 38.708 56.1217ZM38.902 55.2027C41.468 53.9197 43.381 51.9347 43.502 49.7337C41.733 49.9727 39.676 52.2007 38.902 55.2027Z" fill="url(#paint10_linear_1_1033)"/>
<path d="M52.2091 49.5359C51.4841 51.3039 48.9411 54.7429 48.7481 56.2159C49.7651 55.1269 51.4121 53.0959 51.9671 52.5159C53.2041 51.2099 55.4781 48.8159 57.0531 48.8159C57.4301 48.8594 57.7884 49.0036 58.0904 49.2334C58.3923 49.4632 58.6268 49.7702 58.7691 50.1219C58.7691 50.1909 58.5031 50.2219 58.0691 50.7219C57.2001 51.8569 55.5531 55.0529 55.5531 57.0379C55.5531 57.8379 55.7731 57.9829 56.1531 57.9829C56.4941 57.9829 56.9531 57.7399 57.1701 57.7399C57.3041 57.867 57.3831 58.0414 57.3901 58.2259C56.7997 58.7409 56.0791 59.0837 55.3071 59.2169C53.4431 59.2169 53.0071 58.0819 53.0071 56.6509C53.0071 55.8509 53.2241 54.8599 54.3361 52.2939C53.604 52.6304 52.94 53.0985 52.3771 53.6749C50.938 55.0587 49.6323 56.5747 48.4771 58.2029C48.0426 58.9355 47.4956 59.5953 46.8561 60.1579C46.5462 59.9413 46.2862 59.6608 46.0937 59.3353C45.9012 59.0098 45.7807 58.6469 45.7401 58.2709C45.9961 56.0488 46.61 53.8828 47.5581 51.8569C48.7921 49.0289 49.9301 47.3329 50.1961 47.2109C50.6816 47.4272 51.1136 47.7475 51.4615 48.1493C51.8093 48.5511 52.0646 49.0245 52.2091 49.5359Z" fill="url(#paint11_linear_1_1033)"/>
<path d="M65.1561 56.4617C65.1507 56.1664 65.1905 55.872 65.2741 55.5887C65.0081 55.5627 63.2741 58.0557 62.7341 58.6887C62.4615 59.0282 62.1021 59.2877 61.6941 59.4397C61.1164 59.4238 60.5566 59.2357 60.0866 58.8995C59.6166 58.5633 59.2577 58.0943 59.0561 57.5527C59.0383 56.8608 59.1034 56.1692 59.2501 55.4927C59.8311 53.0517 61.5501 48.9567 63.5811 47.4807C64.3673 47.4639 65.1331 47.7321 65.7371 48.2357C64.4657 49.9512 63.4317 51.8305 62.6631 53.8227C62.1644 55.0326 61.8236 56.3018 61.6491 57.5987C61.6458 57.7603 61.7057 57.9167 61.8161 58.0347C62.2981 57.8347 62.9511 57.0407 64.2831 55.2257C65.2347 54.0669 66.032 52.7896 66.6551 51.4257C67.0291 50.2148 67.6756 49.1058 68.5451 48.1837C69.3757 48.1834 70.1836 48.4553 70.8451 48.9577C69.6611 51.7927 67.7971 54.5027 67.7971 57.0417C67.837 57.8106 68.0173 58.5657 68.3291 59.2697C68.3291 59.3417 68.2291 59.3697 68.2291 59.3697C67.4034 59.2256 66.6187 58.9042 65.9291 58.4277C65.6726 58.1703 65.4717 57.863 65.3387 57.5249C65.2058 57.1867 65.1436 56.8249 65.1561 56.4617Z" fill="url(#paint12_linear_1_1033)"/>
<path d="M72.0271 52.732C72.1711 52.102 72.8731 49.589 74.3271 48.86C75.2368 49.1206 76.0306 49.6832 76.5781 50.455C75.1021 52.102 74.6651 53.821 73.8421 55.955C73.4792 56.7964 73.2352 57.6843 73.1171 58.593C73.1171 59.177 73.1171 59.393 72.9731 59.393C72.4979 59.2828 72.0703 59.0239 71.7523 58.6539C71.4344 58.284 71.2427 57.8223 71.2051 57.336C71.359 55.7823 71.6338 54.243 72.0271 52.732ZM75.8991 46.39C75.7147 46.1637 75.6118 45.8819 75.6071 45.59C75.7141 44.5035 75.9667 43.4362 76.3581 42.417C77.4985 42.6371 78.531 43.2362 79.2881 44.117C78.2686 45.1453 77.3532 46.2718 76.5551 47.48C76.1651 47.411 75.8271 47.093 75.8271 46.827C75.8343 46.6791 75.8581 46.5325 75.8981 46.39H75.8991Z" fill="url(#paint13_linear_1_1033)"/>
<path d="M82.819 49.5359C82.091 51.3039 79.551 54.7429 79.358 56.2159C80.375 55.1269 82.019 53.0959 82.577 52.5159C83.811 51.2099 86.0841 48.8159 87.659 48.8159C88.0364 48.8594 88.3951 49.0036 88.6975 49.2334C89 49.4631 89.235 49.7701 89.3781 50.1219C89.3781 50.1909 89.112 50.2219 88.678 50.7219C87.805 51.8569 86.161 55.0529 86.161 57.0379C86.161 57.8379 86.378 57.9829 86.761 57.9829C87.099 57.9829 87.561 57.7399 87.778 57.7399C87.91 57.8682 87.9876 58.0421 87.995 58.2259C87.4054 58.7402 86.6859 59.083 85.915 59.2169C84.051 59.2169 83.6151 58.0819 83.6151 56.6509C83.6151 55.8509 83.8321 54.8599 84.9471 52.2939C84.2143 52.6308 83.5494 53.0988 82.985 53.6749C81.5468 55.0595 80.2412 56.5754 79.0851 58.2029C78.6516 58.9363 78.1045 59.5962 77.4641 60.1579C77.1547 59.9411 76.8954 59.6604 76.7036 59.3349C76.5117 59.0094 76.3919 58.6466 76.3521 58.2709C76.6063 56.049 77.2189 53.8829 78.166 51.8569C79.403 49.0289 80.538 47.3329 80.804 47.2109C81.2901 47.4267 81.7226 47.7469 82.0708 48.1487C82.4191 48.5506 82.6746 49.0242 82.819 49.5359Z" fill="url(#paint14_linear_1_1033)"/>
<path d="M92.1581 56.1217C92.1581 56.3157 92.1351 56.5317 92.1351 56.7487C92.1351 57.5727 92.3291 58.6877 93.2471 58.6877C94.9891 58.6877 96.6591 56.9457 97.6731 55.8567C97.8235 55.9799 97.9618 56.1172 98.0861 56.2667C96.9135 57.9732 95.2137 59.248 93.2471 59.8957C92.2909 59.8646 91.385 59.4596 90.7241 58.7678C90.0633 58.0759 89.7003 57.1524 89.7131 56.1957C89.7131 52.2257 93.3451 47.5537 96.5371 47.5537C97.3849 47.7249 98.1324 48.2204 98.6201 48.9347C98.3791 52.9027 96.2731 54.4747 92.1581 56.1217ZM92.3521 55.2027C94.9181 53.9197 96.8311 51.9347 96.9521 49.7337C95.1831 49.9727 93.1261 52.2007 92.3521 55.2027Z" fill="url(#paint15_linear_1_1033)"/>
<g style="mix-blend-mode:multiply">
<g style="mix-blend-mode:multiply">
<path d="M32.95 41.3833C33.5584 41.3137 34.1742 41.4066 34.735 41.6525C35.2957 41.8985 35.7812 42.2886 36.142 42.7833C35.706 41.7073 34.528 41.0933 32.805 41.0933C27.142 41.0933 21.84 47.4583 21.84 54.0933C21.7726 55.5234 22.0707 56.9472 22.7061 58.2303C22.1832 57.0181 21.9376 55.7045 21.987 54.3853C21.989 47.7443 27.287 41.3833 32.95 41.3833Z" fill="#C79858"/>
</g>
<g style="mix-blend-mode:multiply">
<path d="M34.791 43.3211C34.8004 43.0779 34.7275 42.8387 34.584 42.6421C34.6244 42.7671 34.6454 42.8977 34.646 43.0291C34.646 43.9741 34.256 44.5291 33.146 45.3551C33.1887 45.5793 33.2721 45.7939 33.392 45.9881C33.3478 45.8779 33.3143 45.7637 33.292 45.6471C34.404 44.8211 34.791 44.2641 34.791 43.3211Z" fill="#C79858"/>
</g>
<g style="mix-blend-mode:multiply">
<path d="M27.9171 59.8751C29.9741 59.4161 32.2511 56.3381 32.5171 54.0151L32.3171 54.0611C31.8841 56.3351 29.7321 59.1471 27.7701 59.5831C27.3342 59.5057 26.9242 59.3216 26.5766 59.0473C26.2291 58.773 25.9548 58.4171 25.7781 58.0111C25.9388 58.4827 26.2213 58.9035 26.5969 59.2308C26.9725 59.5581 27.428 59.7804 27.9171 59.8751Z" fill="#C79858"/>
</g>
<g style="mix-blend-mode:multiply">
<path d="M34.4241 51.5483C34.6361 51.5392 34.8468 51.5855 35.0355 51.6826C35.2242 51.7798 35.3843 51.9244 35.5001 52.1023C35.4176 51.8471 35.2533 51.6261 35.0326 51.4737C34.8118 51.3213 34.547 51.2459 34.2791 51.2593C32.081 51.4215 29.9233 51.9354 27.8881 52.7813C27.9393 52.9304 28.0064 53.0735 28.0881 53.2083C28.0721 53.1653 28.052 53.1193 28.035 53.0733C30.0694 52.2266 32.2265 51.7117 34.4241 51.5483Z" fill="#C79858"/>
</g>
<g style="mix-blend-mode:multiply">
<path d="M39.171 55.0555C39.128 55.1995 39.086 55.3445 39.046 55.4915C41.612 54.2085 43.525 52.2235 43.646 50.0225C43.5855 50.0303 43.5254 50.0413 43.466 50.0555C43.193 52.0555 41.474 53.8415 39.171 55.0555Z" fill="#C79858"/>
</g>
<g style="mix-blend-mode:multiply">
<path d="M39.942 58.9785C41.687 58.9785 43.354 57.2365 44.371 56.1475C44.45 56.2135 44.515 56.2755 44.578 56.3345C44.6002 56.3137 44.62 56.2906 44.637 56.2655C44.5118 56.1168 44.3736 55.9796 44.224 55.8555C43.21 56.9445 41.54 58.6865 39.798 58.6865C39.6412 58.6898 39.4864 58.6511 39.3496 58.5745C39.2128 58.4978 39.099 58.3859 39.02 58.2505C39.0731 58.4559 39.1919 58.6383 39.3584 58.7697C39.5249 58.9012 39.7299 58.9745 39.942 58.9785Z" fill="#C79858"/>
</g>
<g style="mix-blend-mode:multiply">
<path d="M43.236 47.8472C44.0033 48.0002 44.6877 48.4297 45.159 49.0542C45.159 49.0112 45.169 48.9752 45.169 48.9362C44.6833 48.2212 43.9365 47.7253 43.089 47.5552C39.889 47.5552 36.265 52.2272 36.265 56.1972C36.2569 56.8909 36.4433 57.573 36.803 58.1662C36.5428 57.6444 36.4079 57.0692 36.409 56.4862C36.408 52.5162 40.045 47.8472 43.236 47.8472Z" fill="#C79858"/>
</g>
<g style="mix-blend-mode:multiply">
<path d="M47.7081 52.1544C48.9421 49.3234 50.0801 47.6264 50.3491 47.5054C51.0711 47.8038 51.6624 48.3508 52.0161 49.0474C51.6735 48.2231 51.0226 47.565 50.2021 47.2134C49.9361 47.3344 48.8021 49.0314 47.5641 51.8594C46.616 53.8853 46.002 56.0513 45.7461 58.2734C45.8232 58.6816 45.9649 59.0749 46.1661 59.4384C46.0454 59.1576 45.9542 58.865 45.8941 58.5654C46.1484 56.3444 46.761 54.1793 47.7081 52.1544Z" fill="#C79858"/>
</g>
<g style="mix-blend-mode:multiply">
<path d="M56.301 58.2772C56.639 58.2772 57.101 58.0342 57.318 58.0342C57.336 58.05 57.3524 58.0674 57.367 58.0862C57.3424 57.9515 57.2717 57.8296 57.167 57.7412C56.95 57.7412 56.491 57.9842 56.15 57.9842C56.0766 57.9911 56.0024 57.9826 55.9324 57.9594C55.8623 57.9361 55.7979 57.8986 55.743 57.8492C55.7502 57.9145 55.7706 57.9777 55.8028 58.0349C55.8351 58.0922 55.8786 58.1423 55.9307 58.1823C55.9828 58.2223 56.0425 58.2513 56.1062 58.2676C56.1698 58.2839 56.2361 58.2872 56.301 58.2772Z" fill="#C79858"/>
</g>
<g style="mix-blend-mode:multiply">
<path d="M52.115 52.8074C53.349 51.5014 55.626 49.1074 57.197 49.1074C57.5238 49.1355 57.8382 49.2456 58.1112 49.4273C58.3842 49.6091 58.607 49.8567 58.759 50.1474L58.769 50.1244C58.6267 49.7726 58.3922 49.4657 58.0902 49.2358C57.7883 49.006 57.43 48.8618 57.053 48.8184C55.478 48.8184 53.204 51.2104 51.967 52.5184C51.467 53.0464 50.087 54.7394 49.076 55.8684C48.9913 56.076 48.9309 56.2928 48.896 56.5144C49.913 55.4224 51.557 53.3884 52.115 52.8074Z" fill="#C79858"/>
</g>
<g style="mix-blend-mode:multiply">
<path d="M54.4871 52.5913C54.3684 52.6296 54.2549 52.6824 54.1491 52.7483C53.5154 53.9602 53.1286 55.2858 53.0111 56.6483C52.9827 57.2215 53.1062 57.7921 53.3691 58.3023C53.2149 57.8653 53.1427 57.4035 53.1561 56.9403C53.1541 56.1483 53.3741 55.1533 54.4871 52.5913Z" fill="#C79858"/>
</g>
<g style="mix-blend-mode:multiply">
<path d="M65.422 55.8823C65.379 55.8823 65.294 55.9443 65.182 56.0593C65.166 56.1921 65.1573 56.3256 65.156 56.4593C65.155 57.0031 65.3011 57.5369 65.579 58.0043C65.4018 57.6086 65.3069 57.1809 65.3 56.7473C65.2948 56.4544 65.336 56.1624 65.422 55.8823Z" fill="#C79858"/>
</g>
<g style="mix-blend-mode:multiply">
<path d="M64.431 55.5142C65.3822 54.3557 66.1785 53.0783 66.8 51.7142C67.1724 50.5018 67.8192 49.3914 68.69 48.4692C69.4305 48.4883 70.1536 48.6973 70.79 49.0762L70.842 48.9512C70.1806 48.4488 69.3727 48.1769 68.542 48.1772C67.6726 49.0993 67.026 50.2084 66.652 51.4192C66.029 52.7831 65.2317 54.0605 64.28 55.2192C62.948 57.0332 62.295 57.8312 61.813 58.0272L61.806 58.0172C61.8279 58.1298 61.8813 58.2338 61.96 58.3172C62.447 58.1292 63.099 57.3322 64.431 55.5142Z" fill="#C79858"/>
</g>
<g style="mix-blend-mode:multiply">
<path d="M59.3981 55.7852C59.9791 53.3412 61.6981 49.2492 63.7291 47.7732C64.4117 47.7744 65.0806 47.9651 65.6611 48.3242C65.6838 48.2927 65.7088 48.2629 65.7361 48.2352C65.1321 47.7316 64.3663 47.4634 63.5801 47.4802C61.5491 48.9562 59.8301 53.0512 59.2491 55.4922C59.1025 56.1687 59.0373 56.8603 59.0551 57.5522C59.1056 57.7455 59.1866 57.9295 59.2951 58.0972C59.255 58.0147 59.2215 57.9291 59.1951 57.8412C59.1787 57.1502 59.2469 56.4597 59.3981 55.7852Z" fill="#C79858"/>
</g>
<g style="mix-blend-mode:multiply">
<path d="M76.0491 46.6825C75.9824 46.6117 75.9292 46.5293 75.8921 46.4395C75.8584 46.566 75.8376 46.6957 75.8301 46.8265C75.8435 46.949 75.8978 47.0634 75.9841 47.1515L75.9741 47.1185C75.9831 46.9708 76.0083 46.8246 76.0491 46.6825Z" fill="#C79858"/>
</g>
<g style="mix-blend-mode:multiply">
<path d="M72.1741 53.0274C72.3181 52.3944 73.0201 49.8814 74.4741 49.1524C75.283 49.3857 76.0032 49.8567 76.5411 50.5044L76.5801 50.4554C76.0326 49.6835 75.2388 49.121 74.3291 48.8604C72.8761 49.5884 72.1731 52.1024 72.0291 52.7324C71.6353 54.242 71.3598 55.7799 71.2051 57.3324C71.2048 57.6901 71.3091 58.0401 71.5051 58.3394C71.4062 58.1138 71.3538 57.8706 71.3511 57.6244C71.5051 56.0729 71.7803 54.5359 72.1741 53.0274Z" fill="#C79858"/>
</g>
<g style="mix-blend-mode:multiply">
<path d="M75.7541 45.8855C75.8595 44.7987 76.1122 43.7312 76.5051 42.7125C77.5404 42.9141 78.4913 43.4216 79.2351 44.1695L79.2871 44.1175C78.53 43.2367 77.4975 42.6376 76.3571 42.4175C75.9657 43.4367 75.7131 44.5039 75.6061 45.5905C75.6142 45.8415 75.6914 46.0854 75.8291 46.2955C75.7832 46.1635 75.7579 46.0252 75.7541 45.8855Z" fill="#C79858"/>
</g>
<g style="mix-blend-mode:multiply">
<path d="M82.723 52.8074C83.957 51.5014 86.234 49.1074 87.808 49.1074C88.1344 49.1356 88.4483 49.2457 88.7209 49.4274C88.9934 49.6092 89.2156 49.8569 89.367 50.1474L89.38 50.1244C89.237 49.7725 89.0019 49.4656 88.6995 49.2358C88.397 49.006 88.0384 48.8618 87.661 48.8184C86.086 48.8184 83.812 51.2104 82.579 52.5184C82.079 53.0464 80.696 54.7394 79.685 55.8684C79.6018 56.0765 79.5415 56.2931 79.505 56.5144C80.521 55.4224 82.168 53.3884 82.723 52.8074Z" fill="#C79858"/>
</g>
<g style="mix-blend-mode:multiply">
<path d="M85.098 52.5913C84.9789 52.6283 84.8652 52.6811 84.76 52.7483C84.1241 53.9596 83.7359 55.2854 83.618 56.6483C83.5916 57.2214 83.7149 57.7915 83.976 58.3023C83.8219 57.8653 83.7497 57.4035 83.763 56.9403C83.766 56.1483 83.982 55.1533 85.098 52.5913Z" fill="#C79858"/>
</g>
<g style="mix-blend-mode:multiply">
<path d="M78.319 52.1544C79.553 49.3234 80.691 47.6264 80.957 47.5054C81.6796 47.8028 82.2713 48.3501 82.624 49.0474C82.2824 48.2224 81.6312 47.564 80.81 47.2134C80.544 47.3344 79.41 49.0314 78.172 51.8594C77.2249 53.8853 76.6122 56.0514 76.358 58.2734C76.4337 58.682 76.5755 59.0755 76.778 59.4384C76.6556 59.1579 76.5631 58.8653 76.502 58.5654C76.7577 56.3443 77.3713 54.1793 78.319 52.1544Z" fill="#C79858"/>
</g>
<g style="mix-blend-mode:multiply">
<path d="M86.909 58.2772C87.25 58.2772 87.709 58.0342 87.926 58.0342C87.9455 58.0483 87.9621 58.0659 87.975 58.0862C87.9508 57.9527 87.8825 57.8313 87.781 57.7412C87.561 57.7412 87.102 57.9842 86.764 57.9842C86.6901 57.9908 86.6156 57.9822 86.5451 57.9589C86.4746 57.9357 86.4096 57.8984 86.354 57.8492C86.3612 57.9142 86.3815 57.9771 86.4135 58.0341C86.4456 58.0911 86.4888 58.1411 86.5406 58.1811C86.5924 58.221 86.6517 58.2501 86.715 58.2666C86.7783 58.2831 86.8443 58.2867 86.909 58.2772Z" fill="#C79858"/>
</g>
<g style="mix-blend-mode:multiply">
<path d="M93.3921 58.9785C95.1371 58.9785 96.8071 57.2365 97.8211 56.1475C97.9001 56.2135 97.9651 56.2755 98.0281 56.3345C98.0503 56.3138 98.0701 56.2906 98.0871 56.2655C97.9628 56.116 97.8245 55.9787 97.6741 55.8555C96.6601 56.9445 94.9901 58.6865 93.2481 58.6865C93.0913 58.6898 92.9365 58.6511 92.7997 58.5745C92.6629 58.4978 92.5491 58.3859 92.4701 58.2505C92.5231 58.4559 92.642 58.6383 92.8085 58.7697C92.975 58.9012 93.18 58.9745 93.3921 58.9785Z" fill="#C79858"/>
</g>
<g style="mix-blend-mode:multiply">
<path d="M96.686 47.8472C97.4536 47.9994 98.1382 48.4291 98.609 49.0542C98.609 49.0112 98.619 48.9752 98.622 48.9362C98.1343 48.2219 97.3868 47.7263 96.539 47.5552C93.347 47.5552 89.715 52.2272 89.715 56.1972C89.7063 56.8914 89.8939 57.5739 90.256 58.1662C89.9938 57.6449 89.8568 57.0697 89.856 56.4862C89.858 52.5162 93.49 47.8472 96.686 47.8472Z" fill="#C79858"/>
</g>
<g style="mix-blend-mode:multiply">
<path d="M92.6251 55.0555C92.5791 55.1995 92.5361 55.3445 92.4971 55.4915C95.0661 54.2085 96.9761 52.2235 97.0971 50.0225C97.0381 50.0295 96.9791 50.0425 96.9171 50.0555C96.6441 52.0555 94.9251 53.8415 92.6251 55.0555Z" fill="#C79858"/>
</g>
</g>
<path d="M38.213 71.0591C38.1395 69.9456 38.4447 68.8401 39.079 67.9221C39.3738 67.557 39.7514 67.2675 40.1804 67.0774C40.6094 66.8873 41.0775 66.8022 41.546 66.8291C42.0622 66.8155 42.5748 66.918 43.046 67.1291C43.4599 67.326 43.8194 67.6213 44.093 67.9891C44.3821 68.3885 44.5894 68.8412 44.703 69.3211C44.843 69.8889 44.9102 70.4723 44.903 71.0571C44.9754 72.1723 44.6677 73.2792 44.03 74.1971C43.7315 74.5622 43.3508 74.8515 42.9191 75.0415C42.4874 75.2314 42.0169 75.3166 41.546 75.2901C41.0358 75.3029 40.5295 75.1986 40.066 74.9851C39.6533 74.7891 39.2959 74.4936 39.026 74.1251C38.7363 73.7254 38.5277 73.2729 38.412 72.7931C38.2726 72.2258 38.2058 71.6431 38.213 71.0591ZM39.243 71.0591C39.2417 71.4913 39.2869 71.9225 39.378 72.3451C39.4559 72.723 39.5954 73.0855 39.791 73.4181C39.9705 73.7157 40.2179 73.9665 40.513 74.1501C40.8233 74.3411 41.1828 74.437 41.547 74.4261C41.8771 74.4387 42.2052 74.3701 42.5026 74.2265C42.8 74.0828 43.0577 73.8684 43.253 73.6021C43.7233 72.8413 43.9404 71.951 43.873 71.0591C43.8739 70.6288 43.8286 70.1997 43.738 69.7791C43.6604 69.3991 43.5184 69.0351 43.318 68.7031C43.1372 68.4037 42.8876 68.1517 42.59 67.9681C42.2761 67.7778 41.914 67.682 41.547 67.6921C41.2192 67.6795 40.8934 67.7481 40.5986 67.8919C40.3037 68.0356 40.049 68.2501 39.857 68.5161C39.3905 69.2783 39.1757 70.168 39.243 71.0591ZM45.789 77.1481C45.6105 77.2033 45.4269 77.2408 45.241 77.2601C45.0613 77.2798 44.8807 77.2899 44.7 77.2901C44.3174 77.2912 43.9358 77.2506 43.562 77.1691C43.195 77.0871 42.834 76.9951 42.489 76.9001C42.144 76.8051 41.807 76.7101 41.489 76.6311C41.1915 76.5512 40.885 76.5092 40.577 76.5061C40.3953 76.5063 40.2144 76.5305 40.039 76.5781V75.7251C40.147 75.7021 40.256 75.6821 40.354 75.6661C40.4582 75.65 40.5636 75.6423 40.669 75.6431C40.9987 75.6441 41.327 75.6847 41.647 75.7641C41.969 75.8491 42.3 75.9351 42.635 76.0331C42.97 76.1311 43.314 76.2201 43.665 76.3021C44.0286 76.3863 44.4008 76.4282 44.774 76.4271C45.1164 76.4271 45.4577 76.3875 45.791 76.3091L45.789 77.1481Z" fill="url(#paint16_linear_1_1033)"/>
<path d="M51.249 66.9712H52.184V72.4272C52.1924 72.8595 52.1268 73.29 51.99 73.7002C51.8793 74.0335 51.6915 74.336 51.442 74.5832C51.1981 74.8166 50.9039 74.9907 50.582 75.0922C50.2232 75.2045 49.849 75.2599 49.473 75.2562C48.6882 75.3144 47.9095 75.082 47.285 74.6032C47.0256 74.3449 46.8252 74.0334 46.6978 73.6902C46.5704 73.347 46.519 72.9802 46.547 72.6152V66.9712H47.518V72.1612C47.5118 72.5127 47.5525 72.8634 47.639 73.2042C47.7069 73.4598 47.834 73.6958 48.01 73.8932C48.1767 74.0731 48.3888 74.2047 48.624 74.2742C48.903 74.3566 49.1931 74.3954 49.484 74.3892C49.7346 74.4142 49.9875 74.3804 50.2227 74.2904C50.458 74.2005 50.669 74.057 50.839 73.8712C51.1578 73.3612 51.3017 72.7613 51.249 72.1622V66.9712Z" fill="url(#paint17_linear_1_1033)"/>
<path d="M58.056 72.8832H55.056L54.242 75.1502H53.271L56.367 66.8472H56.81L59.92 75.1542H58.89L58.056 72.8832ZM55.369 72.0432H57.769L56.863 69.5532L56.571 68.3132H56.558L56.269 69.5762L55.369 72.0432Z" fill="url(#paint18_linear_1_1033)"/>
<path d="M65.848 75.1502H61.009V66.9712H61.98V74.2882H65.848V75.1502Z" fill="url(#paint19_linear_1_1033)"/>
<path d="M67.2729 66.9712H68.2439V75.1502H67.2729V66.9712Z" fill="url(#paint20_linear_1_1033)"/>
<path d="M75.738 67.8312H73.189V75.1512H72.221V67.8312H69.67V66.9712H75.737L75.738 67.8312Z" fill="url(#paint21_linear_1_1033)"/>
<path d="M78.602 71.9022L75.902 66.9712H77.034L78.95 70.5472L79.15 71.2592H79.163L79.376 70.5212L81.217 66.9712H82.244L79.567 71.8922V75.1502H78.599L78.602 71.9022Z" fill="url(#paint22_linear_1_1033)"/>
<g style="mix-blend-mode:multiply">
<path d="M53.107 29.8252H52.959V36.8522H53.107V29.8252Z" fill="#C79858"/>
</g>
<g style="mix-blend-mode:multiply">
<path d="M56.4811 28.9609V28.6689H50.4141V29.5339H50.5601V28.9599L56.4811 28.9609Z" fill="#C79858"/>
</g>
<g style="mix-blend-mode:multiply">
<path d="M62.7271 33.3921H62.5811V36.8521H62.7271V33.3921Z" fill="#C79858"/>
</g>
<g style="mix-blend-mode:multiply">
<path d="M57.829 28.9609H58.653V28.6689H57.682V36.8519H57.829V28.9609Z" fill="#C79858"/>
</g>
<g style="mix-blend-mode:multiply">
<path d="M62.7271 32.5229V28.9609H63.5511V28.6689H62.5821V32.2319H58.7991V32.5239L62.7271 32.5229Z" fill="#C79858"/>
</g>
<g style="mix-blend-mode:multiply">
<path d="M65.6841 28.9609H69.9921V28.6689H65.5381V36.8519H65.6841V28.9609Z" fill="#C79858"/>
</g>
<g style="mix-blend-mode:multiply">
<path d="M70.0491 35.9868H66.6531V36.2748H70.0491V35.9868Z" fill="#C79858"/>
</g>
<g style="mix-blend-mode:multiply">
<path d="M69.6981 32.209H66.6531V32.501H69.6981V32.209Z" fill="#C79858"/>
</g>
<g style="mix-blend-mode:multiply">
<path d="M43.873 71.0601C43.9404 71.952 43.7233 72.8423 43.253 73.6031C43.0577 73.8694 42.8 74.0838 42.5026 74.2275C42.2052 74.3711 41.8771 74.4397 41.547 74.4271C41.1831 74.4379 40.824 74.3419 40.514 74.1511C40.2222 73.9697 39.978 73.7211 39.802 73.4261C39.848 73.5261 39.887 73.6261 39.94 73.7081C40.1174 74.0071 40.3639 74.2592 40.659 74.4431C40.9704 74.6341 41.3308 74.73 41.696 74.7191C42.026 74.7313 42.354 74.6626 42.6514 74.519C42.9487 74.3754 43.2064 74.1612 43.402 73.8951C43.8706 73.1351 44.0866 72.2463 44.019 71.3561C44.0215 70.9247 43.9762 70.4944 43.884 70.0731C43.8064 69.6931 43.6643 69.3292 43.464 68.9971C43.5888 69.246 43.6825 69.5093 43.743 69.7811C43.8319 70.2015 43.8754 70.6303 43.873 71.0601Z" fill="#C79858"/>
</g>
<g style="mix-blend-mode:multiply">
<path d="M40.5 75.9581C40.6042 75.942 40.7095 75.9343 40.815 75.9351C41.1433 75.9362 41.4704 75.9768 41.789 76.0561C42.114 76.1411 42.445 76.2271 42.78 76.3251C43.115 76.4231 43.456 76.5121 43.807 76.5941C44.1708 76.6768 44.5429 76.7174 44.916 76.7151C45.2092 76.7151 45.5018 76.6853 45.789 76.6261V76.3081C45.4557 76.3866 45.1144 76.4262 44.772 76.4261C44.3987 76.4273 44.0266 76.3854 43.663 76.3011C43.312 76.2191 42.963 76.1301 42.633 76.0321C42.303 75.9341 41.967 75.8481 41.645 75.7631C41.325 75.6838 40.9967 75.6431 40.667 75.6421C40.5615 75.6414 40.4562 75.6491 40.352 75.6651C40.252 75.6811 40.145 75.7011 40.037 75.7241V76.5771C40.0859 76.5684 40.1353 76.563 40.185 76.5611V76.0161C40.293 75.9941 40.398 75.9748 40.5 75.9581Z" fill="#C79858"/>
</g>
<g style="mix-blend-mode:multiply">
<path d="M38.3611 71.3541C38.2877 70.2397 38.5929 69.1333 39.2271 68.2141C39.5216 67.8487 39.8992 67.559 40.3282 67.3689C40.7573 67.1788 41.2256 67.0938 41.6941 67.1211C42.2079 67.1084 42.718 67.2109 43.1871 67.4211C43.601 67.618 43.9605 67.9133 44.2341 68.2811C44.3304 68.4176 44.416 68.5613 44.4901 68.7111C44.3839 68.4563 44.2498 68.2142 44.0901 67.9891C43.8165 67.6213 43.457 67.326 43.0431 67.1291C42.5718 66.918 42.0592 66.8155 41.5431 66.8291C41.0746 66.8022 40.6065 66.8873 40.1775 67.0774C39.7485 67.2675 39.3709 67.557 39.0761 67.9221C38.4418 68.8401 38.1366 69.9456 38.2101 71.0591C38.203 71.6439 38.2702 72.2272 38.4101 72.7951C38.4919 73.1091 38.6132 73.4115 38.7711 73.6951C38.684 73.4973 38.6115 73.2934 38.5541 73.0851C38.4184 72.5183 38.3536 71.9368 38.3611 71.3541Z" fill="#C79858"/>
</g>
<g style="mix-blend-mode:multiply">
<path d="M46.693 67.2632H47.517V66.9712H46.546V72.6142C46.5311 73.1169 46.6451 73.615 46.877 74.0612C46.7477 73.6901 46.6854 73.299 46.693 72.9062V67.2632Z" fill="#C79858"/>
</g>
<g style="mix-blend-mode:multiply">
<path d="M48.7681 74.5662C49.0469 74.6497 49.337 74.6895 49.6281 74.6842C49.8794 74.7088 50.1331 74.6745 50.3689 74.5839C50.6046 74.4933 50.816 74.3489 50.9861 74.1622C51.3034 73.6516 51.4472 73.0522 51.3961 72.4532V67.2632H52.1831V66.9712H51.2481V72.1612C51.3008 72.7603 51.1569 73.3602 50.8381 73.8702C50.6681 74.056 50.4571 74.1995 50.2218 74.2894C49.9866 74.3794 49.7337 74.4132 49.4831 74.3882C49.1922 74.3944 48.9021 74.3556 48.6231 74.2732C48.3879 74.2037 48.1758 74.0721 48.0091 73.8922C47.9547 73.8294 47.9052 73.7625 47.8611 73.6922C47.9276 73.875 48.0265 74.0444 48.1531 74.1922C48.322 74.3683 48.534 74.4973 48.7681 74.5662Z" fill="#C79858"/>
</g>
<g style="mix-blend-mode:multiply">
<path d="M56.713 68.605H56.702L56.668 68.749L56.857 69.549L57.765 72.039H55.62L55.514 72.331H57.914L57.006 69.841L56.713 68.605Z" fill="#C79858"/>
</g>
<g style="mix-blend-mode:multiply">
<path d="M58.162 73.1758L58.892 75.1498H58.929L58.2 73.1758H58.162Z" fill="#C79858"/>
</g>
<g style="mix-blend-mode:multiply">
<path d="M56.9211 67.1338L56.8121 66.8428H56.3681L53.2681 75.1508H53.5231L56.5121 67.1338H56.9211Z" fill="#C79858"/>
</g>
<g style="mix-blend-mode:multiply">
<path d="M65.847 74.2881H62.124V74.5801H65.847V74.2881Z" fill="#C79858"/>
</g>
<g style="mix-blend-mode:multiply">
<path d="M61.9791 67.2612V66.9692H61.0081V75.1492H61.1551V67.2612H61.9791Z" fill="#C79858"/>
</g>
<g style="mix-blend-mode:multiply">
<path d="M68.2441 67.2612V66.9692H67.2731V75.1492H67.4191V67.2612H68.2441Z" fill="#C79858"/>
</g>
<g style="mix-blend-mode:multiply">
<path d="M75.7371 67.2612V66.9692H69.6691V67.8352H69.8151V67.2652L75.7371 67.2612Z" fill="#C79858"/>
</g>
<g style="mix-blend-mode:multiply">
<path d="M72.365 68.124H72.219V75.151H72.365V68.124Z" fill="#C79858"/>
</g>
<g style="mix-blend-mode:multiply">
<path d="M78.6011 71.9272V75.1502H78.7471V72.1932L78.6011 71.9272Z" fill="#C79858"/>
</g>
<g style="mix-blend-mode:multiply">
<path d="M79.311 71.5522L79.526 70.8152L81.365 67.2622H82.089L82.247 66.9702H81.218L79.379 70.5202L79.191 71.1702L79.299 71.5512L79.311 71.5522Z" fill="#C79858"/>
</g>
<g style="mix-blend-mode:multiply">
<path d="M78.963 70.5872L78.95 70.5452L77.034 66.9692H75.9L76.06 67.2612H77.18L78.963 70.5872Z" fill="#C79858"/>
</g>
<path d="M45.969 36.2551C46.2873 36.9537 46.7672 37.5666 47.369 38.0431C47.861 38.4241 48.269 38.5551 48.403 38.4071C48.695 38.1071 47.744 36.8071 47.143 35.4341C46.542 34.0611 46.513 33.2621 46.113 33.3671C45.929 33.4231 45.726 33.7311 45.641 34.2461C45.5489 34.9335 45.663 35.6327 45.969 36.2551Z" fill="url(#paint23_linear_1_1033)"/>
<path d="M44.772 39.0431C46.813 38.6131 48.21 38.0431 48.401 38.4061C48.572 38.7311 47.453 39.9251 45.396 40.5421C44.4458 40.8224 43.4456 40.8907 42.466 40.7421C41.633 40.6041 41.055 40.2921 40.983 40.0371C40.825 39.4971 42.738 39.4801 44.772 39.0431Z" fill="url(#paint24_linear_1_1033)"/>
<path d="M43.722 34.1681C43.658 34.9623 43.8053 35.7593 44.149 36.4781C44.441 37.0591 44.779 37.3611 44.966 37.2781C45.347 37.1171 44.956 35.5191 45.124 34.0001C45.292 32.4811 45.646 31.5391 45.242 31.4441C44.896 31.3661 43.879 32.3901 43.722 34.1681Z" fill="url(#paint25_linear_1_1033)"/>
<path d="M41.317 36.0151C43.387 36.8061 44.933 36.8581 44.969 37.2781C44.982 37.4721 44.618 37.7181 43.952 37.8621C43.0311 38.035 42.082 37.9821 41.186 37.7081C40.1447 37.4037 39.1857 36.8677 38.381 36.1401C37.708 35.5201 37.374 34.9401 37.449 34.6931C37.606 34.1581 39.253 35.2371 41.317 36.0151Z" fill="url(#paint26_linear_1_1033)"/>
<path d="M42.767 31.081C42.3502 31.7921 42.1 32.5884 42.035 33.41C42.002 34.079 42.15 34.532 42.353 34.558C42.76 34.607 43.222 33.029 44.085 31.595C44.925 30.148 45.647 29.131 45.312 28.908C45.008 28.709 43.699 29.47 42.767 31.081Z" fill="url(#paint27_linear_1_1033)"/>
<path d="M39.775 31.5891C41.219 33.2431 42.518 34.1891 42.354 34.5581C42.269 34.7421 41.826 34.7581 41.17 34.5221C40.2836 34.1678 39.4868 33.6214 38.837 32.9221C37.19 31.2221 36.53 29.1221 36.865 28.8311C37.216 28.4831 38.328 29.9621 39.775 31.5891Z" fill="url(#paint28_linear_1_1033)"/>
<path d="M43.1211 27.7109C41.6841 28.9579 41.0111 30.5819 41.3661 30.8109C41.7211 31.0399 42.8331 29.8499 44.1751 28.6649C45.5071 27.4649 46.5141 26.5419 46.2551 26.2439C46.0081 25.9629 44.5381 26.4519 43.1211 27.7109Z" fill="url(#paint29_linear_1_1033)"/>
<path d="M40.132 27.1739C40.952 29.1159 41.681 30.5499 41.366 30.8129C41.051 31.0759 39.722 30.0129 38.804 27.9649C37.885 25.9369 37.774 23.9719 38.164 23.8079C38.574 23.6299 39.299 25.2479 40.132 27.1739Z" fill="url(#paint30_linear_1_1033)"/>
<path d="M44.444 24.5322C42.744 25.4082 41.626 26.6782 41.882 27.0062C42.138 27.3342 43.582 26.5892 45.215 25.7232C46.848 24.8572 48.06 24.1022 47.869 23.7682C47.678 23.4342 46.137 23.6502 44.444 24.5322Z" fill="url(#paint31_linear_1_1033)"/>
<path d="M41.6841 23.269C42.0321 25.287 42.2651 26.862 41.8841 27.006C41.5031 27.15 40.6111 25.733 40.2241 23.633C39.8371 21.533 40.0891 19.699 40.5001 19.643C40.9111 19.587 41.3231 21.264 41.6841 23.269Z" fill="url(#paint32_linear_1_1033)"/>
<path d="M44.896 21.9789C43.961 23.6289 43.096 24.9479 42.708 24.8039C42.32 24.6599 42.623 23.0039 43.608 21.2609C44.593 19.5179 45.816 18.4159 46.121 18.6949C46.464 18.9079 45.813 20.3219 44.896 21.9789Z" fill="url(#paint33_linear_1_1033)"/>
<path d="M74.4951 36.2551C74.1755 36.9529 73.6959 37.5655 73.0951 38.0431C72.6031 38.4241 72.1951 38.5551 72.0611 38.4071C71.7691 38.1071 72.7201 36.8071 73.3211 35.4341C73.9221 34.0611 73.9511 33.2621 74.3511 33.3671C74.5351 33.4231 74.7411 33.7311 74.8241 34.2461C74.913 34.9335 74.7986 35.632 74.4951 36.2551Z" fill="url(#paint34_linear_1_1033)"/>
<path d="M75.691 39.0431C73.65 38.6131 72.253 38.0431 72.062 38.4061C71.891 38.7311 73.01 39.9251 75.067 40.5421C76.0163 40.8224 77.0155 40.8907 77.994 40.7421C78.831 40.6041 79.408 40.2921 79.48 40.0371C79.634 39.4971 77.72 39.4801 75.691 39.0431Z" fill="url(#paint35_linear_1_1033)"/>
<path d="M76.737 34.1681C76.8011 34.9623 76.6537 35.7593 76.31 36.4781C76.018 37.0591 75.68 37.3611 75.493 37.2781C75.112 37.1171 75.503 35.5191 75.332 34.0001C75.181 32.4941 74.814 31.5391 75.217 31.4441C75.566 31.3661 76.583 32.3901 76.737 34.1681Z" fill="url(#paint36_linear_1_1033)"/>
<path d="M79.149 36.0151C77.075 36.8061 75.53 36.8581 75.494 37.2781C75.478 37.4721 75.848 37.7181 76.511 37.8621C77.4319 38.035 78.381 37.9821 79.277 37.7081C80.318 37.403 81.2768 36.867 82.082 36.1401C82.755 35.5201 83.089 34.9401 83.014 34.6931C82.857 34.1581 81.207 35.2371 79.149 36.0151Z" fill="url(#paint37_linear_1_1033)"/>
<path d="M77.6961 31.081C78.1143 31.7914 78.3647 32.5881 78.4281 33.41C78.4641 34.079 78.3131 34.532 78.1101 34.558C77.7031 34.607 77.2411 33.029 76.3781 31.595C75.5381 30.148 74.8161 29.131 75.1511 28.908C75.4551 28.709 76.7611 29.47 77.6961 31.081Z" fill="url(#paint38_linear_1_1033)"/>
<path d="M80.6881 31.5891C79.2441 33.2431 77.9421 34.1891 78.1091 34.5581C78.1941 34.7421 78.6371 34.7581 79.2931 34.5221C80.1791 34.1671 80.9758 33.6207 81.6261 32.9221C83.2731 31.2221 83.9331 29.1221 83.5951 28.8311C83.2471 28.4831 82.1351 29.9621 80.6881 31.5891Z" fill="url(#paint39_linear_1_1033)"/>
<path d="M77.342 27.7109C78.779 28.9579 79.452 30.5819 79.097 30.8109C78.742 31.0399 77.63 29.8499 76.288 28.6649C74.956 27.4649 73.949 26.5419 74.208 26.2439C74.454 25.9629 75.924 26.4519 77.342 27.7109Z" fill="url(#paint40_linear_1_1033)"/>
<path d="M80.3301 27.1739C79.5061 29.1159 78.7851 30.5499 79.0961 30.8129C79.4071 31.0759 80.7401 30.0129 81.6581 27.9649C82.5731 25.9369 82.6881 23.9719 82.2941 23.8079C81.9001 23.6439 81.1631 25.2479 80.3301 27.1739Z" fill="url(#paint41_linear_1_1033)"/>
<path d="M76.019 24.5322C77.719 25.4082 78.834 26.6782 78.581 27.0062C78.328 27.3342 76.881 26.5892 75.248 25.7232C73.615 24.8572 72.403 24.1022 72.594 23.7682C72.785 23.4342 74.326 23.6502 76.019 24.5322Z" fill="url(#paint42_linear_1_1033)"/>
<path d="M78.7791 23.269C78.4311 25.287 78.1981 26.862 78.5791 27.006C78.9601 27.15 79.8521 25.733 80.2391 23.633C80.6261 21.533 80.3741 19.699 79.9631 19.643C79.5521 19.587 79.1431 21.264 78.7791 23.269Z" fill="url(#paint43_linear_1_1033)"/>
<path d="M75.5661 21.9789C76.5011 23.6289 77.3741 24.9479 77.7541 24.8039C78.1341 24.6599 77.8391 23.0039 76.8541 21.2609C75.8691 19.5179 74.6461 18.4159 74.3411 18.6949C73.9981 18.9079 74.6441 20.3219 75.5661 21.9789Z" fill="url(#paint44_linear_1_1033)"/>
<g style="mix-blend-mode:screen">
<path d="M60.3581 83.792L61.5321 86.169L64.1561 86.55L62.2561 88.399L62.7051 91.014L60.3581 89.78L58.0131 91.014L58.4601 88.399L56.5601 86.55L59.1841 86.169L60.3581 83.792Z" fill="#AE9557"/>
</g>
<g style="mix-blend-mode:screen">
<path d="M69.089 84.5088L70.031 86.4158L72.131 86.7158L70.611 88.1988L70.97 90.2908L69.088 89.3038L67.209 90.2908L67.568 88.1988L66.046 86.7158L68.146 86.4158L69.089 84.5088Z" fill="#AE9557"/>
</g>
<g style="mix-blend-mode:screen">
<path d="M76.6701 85.228L77.3781 86.66L78.9591 86.891L77.8151 88.006L78.0861 89.582L76.6701 88.836L75.2551 89.582L75.5261 88.006L74.3821 86.891L75.9631 86.66L76.6701 85.228Z" fill="#AE9557"/>
</g>
<g style="mix-blend-mode:screen">
<path d="M51.634 84.5088L50.692 86.4158L48.592 86.7158L50.112 88.1988L49.753 90.2908L51.635 89.3038L53.514 90.2908L53.155 88.1988L54.677 86.7158L52.577 86.4158L51.634 84.5088Z" fill="#AE9557"/>
</g>
<g style="mix-blend-mode:screen">
<path d="M44.054 85.228L43.346 86.66L41.765 86.891L42.909 88.006L42.638 89.582L44.054 88.836L45.468 89.582L45.197 88.006L46.342 86.891L44.759 86.66L44.054 85.228Z" fill="#AE9557"/>
</g>
<path d="M60.301 83.561L61.475 85.938L64.099 86.319L62.199 88.171L62.648 90.785L60.299 89.552L57.952 90.785L58.401 88.171L56.501 86.319L59.125 85.938L60.301 83.561Z" fill="url(#paint45_linear_1_1033)"/>
<path d="M69.0311 84.2778L69.9711 86.1848L72.0711 86.4848L70.5531 87.9678L70.9121 90.0678L69.0311 89.0778L67.1481 90.0678L67.5071 87.9678L65.9871 86.4848L68.0871 86.1848L69.0311 84.2778Z" fill="url(#paint46_linear_1_1033)"/>
<path d="M76.556 84.9971L77.264 86.4291L78.845 86.6601L77.701 87.7751L77.97 89.3511L76.555 88.6081L75.141 89.3511L75.41 87.7751L74.266 86.6601L75.847 86.4291L76.556 84.9971Z" fill="url(#paint47_linear_1_1033)"/>
<path d="M51.5191 84.2778L50.5771 86.1848L48.4771 86.4848L49.9971 87.9678L49.6401 90.0678L51.5211 89.0778L53.4021 90.0678L53.0431 87.9678L54.5651 86.4848L52.4651 86.1848L51.5191 84.2778Z" fill="url(#paint48_linear_1_1033)"/>
<path d="M43.938 84.9971L43.23 86.4291L41.649 86.6601L42.793 87.7751L42.524 89.3511L43.938 88.6081L45.353 89.3511L45.082 87.7751L46.227 86.6601L44.644 86.4291L43.938 84.9971Z" fill="url(#paint49_linear_1_1033)"/>
<g style="mix-blend-mode:multiply">
<g style="mix-blend-mode:multiply">
<path d="M58.3861 88.271L57.9541 90.786L58.1241 90.696L58.5181 88.396L58.3861 88.271Z" fill="#C79858"/>
</g>
<g style="mix-blend-mode:multiply">
<path d="M60.416 83.792L60.301 83.561L59.128 85.938L56.504 86.319L56.723 86.534L59.243 86.169L60.416 83.792Z" fill="#C79858"/>
</g>
<g style="mix-blend-mode:multiply">
<path d="M63.911 86.505L64.1 86.319L61.478 85.938L61.592 86.169L63.911 86.505Z" fill="#C79858"/>
</g>
<g style="mix-blend-mode:multiply">
<path d="M69.145 84.5088L69.031 84.2778L68.089 86.1848L65.989 86.4848L66.208 86.6998L68.208 86.4118L69.145 84.5088Z" fill="#C79858"/>
</g>
<g style="mix-blend-mode:multiply">
<path d="M67.4911 88.0752L67.1481 90.0682L67.3181 89.9782L67.6181 88.2032L67.4911 88.0752Z" fill="#C79858"/>
</g>
<g style="mix-blend-mode:multiply">
<path d="M71.8801 86.675L72.0711 86.489L69.9711 86.189L70.0831 86.42L71.8801 86.675Z" fill="#C79858"/>
</g>
<g style="mix-blend-mode:multiply">
<path d="M75.394 87.877L75.141 89.351L75.311 89.261L75.526 88.005L75.394 87.877Z" fill="#C79858"/>
</g>
<g style="mix-blend-mode:multiply">
<path d="M76.6651 85.2281L76.5511 84.9971L75.8431 86.4291L74.2621 86.6601L74.4811 86.8751L75.9581 86.6601L76.6651 85.2281Z" fill="#C79858"/>
</g>
<g style="mix-blend-mode:multiply">
<path d="M78.655 86.8452L78.846 86.6592L77.265 86.4282L77.379 86.6592L78.655 86.8452Z" fill="#C79858"/>
</g>
<g style="mix-blend-mode:multiply">
<path d="M51.634 84.5088L51.52 84.2778L50.578 86.1848L48.478 86.4848L48.699 86.6998L50.699 86.4118L51.634 84.5088Z" fill="#C79858"/>
</g>
<g style="mix-blend-mode:multiply">
<path d="M49.98 88.0752L49.639 90.0682L49.807 89.9782L50.107 88.2032L49.98 88.0752Z" fill="#C79858"/>
</g>
<g style="mix-blend-mode:multiply">
<path d="M54.372 86.675L54.563 86.489L52.463 86.189L52.577 86.42L54.372 86.675Z" fill="#C79858"/>
</g>
<g style="mix-blend-mode:multiply">
<path d="M42.775 87.877L42.524 89.351L42.692 89.261L42.909 88.005L42.775 87.877Z" fill="#C79858"/>
</g>
<g style="mix-blend-mode:multiply">
<path d="M46.0371 86.8452L46.2281 86.6592L44.6471 86.4282L44.7611 86.6592L46.0371 86.8452Z" fill="#C79858"/>
</g>
<g style="mix-blend-mode:multiply">
<path d="M44.052 85.2281L43.938 84.9971L43.23 86.4291L41.649 86.6601L41.869 86.8751L43.346 86.6601L44.052 85.2281Z" fill="#C79858"/>
</g>
</g>
<path d="M39.053 89.3971C38.989 89.3968 38.9261 89.3797 38.8708 89.3474C38.8155 89.3151 38.7697 89.2687 38.738 89.2131L24.538 64.6131C24.513 64.5718 24.4966 64.526 24.4897 64.4783C24.4828 64.4306 24.4855 64.382 24.4977 64.3353C24.5099 64.2887 24.5314 64.245 24.5608 64.2068C24.5902 64.1686 24.627 64.1368 24.669 64.1131C24.7105 64.0883 24.7565 64.0721 24.8044 64.0654C24.8523 64.0588 24.901 64.0619 24.9477 64.0745C24.9943 64.0871 25.038 64.1089 25.076 64.1387C25.114 64.1686 25.1457 64.2058 25.169 64.2481L39.369 88.8421C39.394 88.8834 39.4104 88.9295 39.4172 88.9773C39.4239 89.0252 39.421 89.0739 39.4085 89.1206C39.396 89.1673 39.3742 89.211 39.3443 89.249C39.3145 89.2871 39.2774 89.3187 39.235 89.3421C39.1811 89.3779 39.1178 89.397 39.053 89.3971Z" fill="url(#paint50_linear_1_1033)"/>
<path d="M94.4751 38.656C94.4111 38.6554 94.3484 38.6381 94.2932 38.6058C94.2379 38.5735 94.192 38.5274 94.1601 38.472L81.2001 16.024H39.2631L26.3031 38.472C26.2538 38.5554 26.1737 38.6159 26.08 38.6405C25.9864 38.665 25.8868 38.6515 25.8031 38.603C25.7611 38.5793 25.7243 38.5474 25.6949 38.5093C25.6654 38.4711 25.644 38.4274 25.6317 38.3807C25.6195 38.3341 25.6168 38.2855 25.6237 38.2378C25.6307 38.1901 25.6471 38.1443 25.6721 38.103L38.7371 15.474C38.7684 15.4183 38.8142 15.3722 38.8697 15.3405C38.9251 15.3088 38.9882 15.2927 39.0521 15.294H81.4091C81.4729 15.2927 81.536 15.3088 81.5914 15.3405C81.6469 15.3722 81.6928 15.4183 81.7241 15.474L94.7901 38.113C94.8145 38.1544 94.8305 38.2002 94.8371 38.2478C94.8438 38.2954 94.8409 38.3438 94.8287 38.3903C94.8165 38.4368 94.7953 38.4804 94.7662 38.5186C94.737 38.5569 94.7006 38.5889 94.6591 38.613C94.6024 38.6427 94.539 38.6575 94.4751 38.656Z" fill="url(#paint51_linear_1_1033)"/>
<path d="M81.41 89.397C81.345 89.3972 81.2813 89.3792 81.226 89.345C81.1841 89.3212 81.1474 89.2893 81.1181 89.2511C81.0887 89.2129 81.0673 89.1692 81.0551 89.1226C81.0429 89.076 81.0402 89.0275 81.047 88.9798C81.0539 88.9321 81.0702 88.8863 81.095 88.845L95.295 64.251C95.3184 64.2087 95.35 64.1715 95.388 64.1417C95.4261 64.1119 95.4697 64.09 95.5164 64.0774C95.563 64.0648 95.6117 64.0617 95.6596 64.0683C95.7075 64.075 95.7535 64.0912 95.795 64.116C95.8373 64.1394 95.8744 64.1711 95.9041 64.2093C95.9338 64.2474 95.9554 64.2912 95.9676 64.3379C95.9799 64.3847 95.9825 64.4334 95.9753 64.4812C95.9682 64.529 95.9514 64.5749 95.926 64.616L81.726 89.216C81.6936 89.271 81.6474 89.3166 81.592 89.3483C81.5366 89.3801 81.4739 89.3968 81.41 89.397Z" fill="url(#paint52_linear_1_1033)"/>
<path style="mix-blend-mode:screen" d="M30.0329 91.243C28.4019 92.122 24.5959 88.231 21.5329 82.552C18.4699 76.873 17.3069 71.552 18.9329 70.672C20.5589 69.792 24.3729 73.684 27.4329 79.363C30.4929 85.042 31.6669 90.364 30.0329 91.243Z" fill="url(#paint53_radial_1_1033)"/>
<path style="mix-blend-mode:screen" d="M112.268 42.8622C110.624 43.7182 106.868 39.7782 103.882 34.0532C100.896 28.3282 99.804 22.9992 101.448 22.1432C103.092 21.2872 106.848 25.2272 109.834 30.9492C112.82 36.6712 113.911 42.0022 112.268 42.8622Z" fill="url(#paint54_radial_1_1033)"/>
</g>
<defs>
<linearGradient id="paint0_linear_1_1033" x1="30.1165" y1="0.208409" x2="77.9656" y2="109.886" gradientUnits="userSpaceOnUse">
<stop offset="0.029" stop-color="#C8953E"/>
<stop offset="0.129" stop-color="#DFC760"/>
<stop offset="0.181" stop-color="#D4B34F"/>
<stop offset="0.291" stop-color="#C28F32"/>
<stop offset="0.381" stop-color="#B77A1F"/>
<stop offset="0.439" stop-color="#B37219"/>
<stop offset="0.492" stop-color="#B97E22"/>
<stop offset="0.589" stop-color="#CB9E3D"/>
<stop offset="0.718" stop-color="#E7D367"/>
<stop offset="0.76" stop-color="#F2E677"/>
<stop offset="1" stop-color="#CB9F3D"/>
</linearGradient>
<linearGradient id="paint1_linear_1_1033" x1="34.6385" y1="8.02393" x2="75.0423" y2="101.34" gradientUnits="userSpaceOnUse">
<stop stop-color="#CB9F3D"/>
<stop offset="0.24" stop-color="#F2E677"/>
<stop offset="0.282" stop-color="#E7D367"/>
<stop offset="0.411" stop-color="#CB9E3D"/>
<stop offset="0.508" stop-color="#B97E22"/>
<stop offset="0.561" stop-color="#B37219"/>
<stop offset="0.619" stop-color="#B77A1F"/>
<stop offset="0.709" stop-color="#C28F32"/>
<stop offset="0.819" stop-color="#D4B34F"/>
<stop offset="0.871" stop-color="#DFC760"/>
<stop offset="0.971" stop-color="#C8953E"/>
</linearGradient>
<linearGradient id="paint2_linear_1_1033" x1="1.59152" y1="49.2918" x2="118.74" y2="57.4245" gradientUnits="userSpaceOnUse">
<stop stop-color="#CB9F3D"/>
<stop offset="0.24" stop-color="#FFFC9E"/>
<stop offset="0.318" stop-color="#E8D376"/>
<stop offset="0.43" stop-color="#CB9E44"/>
<stop offset="0.515" stop-color="#B97E24"/>
<stop offset="0.561" stop-color="#B37219"/>
<stop offset="0.619" stop-color="#B77A1F"/>
<stop offset="0.709" stop-color="#C28F32"/>
<stop offset="0.819" stop-color="#D4B34F"/>
<stop offset="0.871" stop-color="#DFC760"/>
<stop offset="0.971" stop-color="#C8953E"/>
</linearGradient>
<linearGradient id="paint3_linear_1_1033" x1="1.6158" y1="49.2645" x2="118.703" y2="57.4735" gradientUnits="userSpaceOnUse">
<stop stop-color="#CB9F3D"/>
<stop offset="0.24" stop-color="#FFFC9E"/>
<stop offset="0.318" stop-color="#E8D376"/>
<stop offset="0.43" stop-color="#CB9E44"/>
<stop offset="0.515" stop-color="#B97E24"/>
<stop offset="0.561" stop-color="#B37219"/>
<stop offset="0.619" stop-color="#B77A1F"/>
<stop offset="0.709" stop-color="#C28F32"/>
<stop offset="0.819" stop-color="#D4B34F"/>
<stop offset="0.871" stop-color="#DFC760"/>
<stop offset="0.971" stop-color="#C8953E"/>
</linearGradient>
<linearGradient id="paint4_linear_1_1033" x1="8.00067" y1="49.6271" x2="112.336" y2="56.8705" gradientUnits="userSpaceOnUse">
<stop offset="0.029" stop-color="#C8953E"/>
<stop offset="0.129" stop-color="#DFC760"/>
<stop offset="0.181" stop-color="#D4B34F"/>
<stop offset="0.291" stop-color="#C28F32"/>
<stop offset="0.381" stop-color="#B77A1F"/>
<stop offset="0.439" stop-color="#B37219"/>
<stop offset="0.492" stop-color="#B97E22"/>
<stop offset="0.589" stop-color="#CB9E3D"/>
<stop offset="0.718" stop-color="#E7D367"/>
<stop offset="0.76" stop-color="#F2E677"/>
<stop offset="1" stop-color="#CB9F3D"/>
</linearGradient>
<linearGradient id="paint5_linear_1_1033" x1="0.490567" y1="70.8749" x2="111.043" y2="101.238" gradientUnits="userSpaceOnUse">
<stop stop-color="#CB9F3D"/>
<stop offset="0.24" stop-color="#FFFC9E"/>
<stop offset="0.318" stop-color="#E8D376"/>
<stop offset="0.43" stop-color="#CB9E44"/>
<stop offset="0.515" stop-color="#B97E24"/>
<stop offset="0.561" stop-color="#B37219"/>
<stop offset="0.619" stop-color="#B77A1F"/>
<stop offset="0.709" stop-color="#C28F32"/>
<stop offset="0.819" stop-color="#D4B34F"/>
<stop offset="0.871" stop-color="#DFC760"/>
<stop offset="0.971" stop-color="#C8953E"/>
</linearGradient>
<linearGradient id="paint6_linear_1_1033" x1="53.4476" y1="36.8519" x2="53.4476" y2="28.6689" gradientUnits="userSpaceOnUse">
<stop stop-color="#38190F"/>
<stop offset="1" stop-color="#68390B"/>
</linearGradient>
<linearGradient id="paint7_linear_1_1033" x1="60.6176" y1="36.8519" x2="60.6176" y2="28.6689" gradientUnits="userSpaceOnUse">
<stop stop-color="#38190F"/>
<stop offset="1" stop-color="#68390B"/>
</linearGradient>
<linearGradient id="paint8_linear_1_1033" x1="67.7955" y1="36.8499" x2="67.7955" y2="28.6689" gradientUnits="userSpaceOnUse">
<stop stop-color="#38190F"/>
<stop offset="1" stop-color="#68390B"/>
</linearGradient>
<linearGradient id="paint9_linear_1_1033" x1="29.0846" y1="60.7918" x2="29.0846" y2="41.0918" gradientUnits="userSpaceOnUse">
<stop stop-color="#38190F"/>
<stop offset="1" stop-color="#68390B"/>
</linearGradient>
<linearGradient id="paint10_linear_1_1033" x1="40.7149" y1="59.8957" x2="40.7149" y2="47.5537" gradientUnits="userSpaceOnUse">
<stop stop-color="#38190F"/>
<stop offset="1" stop-color="#68390B"/>
</linearGradient>
<linearGradient id="paint11_linear_1_1033" x1="52.2546" y1="60.1579" x2="52.2546" y2="47.2109" gradientUnits="userSpaceOnUse">
<stop stop-color="#38190F"/>
<stop offset="1" stop-color="#68390B"/>
</linearGradient>
<linearGradient id="paint12_linear_1_1033" x1="64.9492" y1="59.4397" x2="64.9492" y2="47.48" gradientUnits="userSpaceOnUse">
<stop stop-color="#38190F"/>
<stop offset="1" stop-color="#68390B"/>
</linearGradient>
<linearGradient id="paint13_linear_1_1033" x1="75.2466" y1="59.393" x2="75.2466" y2="42.417" gradientUnits="userSpaceOnUse">
<stop stop-color="#38190F"/>
<stop offset="1" stop-color="#68390B"/>
</linearGradient>
<linearGradient id="paint14_linear_1_1033" x1="82.8651" y1="60.1579" x2="82.8651" y2="47.2109" gradientUnits="userSpaceOnUse">
<stop stop-color="#38190F"/>
<stop offset="1" stop-color="#68390B"/>
</linearGradient>
<linearGradient id="paint15_linear_1_1033" x1="94.1664" y1="59.8957" x2="94.1664" y2="47.5537" gradientUnits="userSpaceOnUse">
<stop stop-color="#38190F"/>
<stop offset="1" stop-color="#68390B"/>
</linearGradient>
<linearGradient id="paint16_linear_1_1033" x1="41.9966" y1="77.2901" x2="41.9966" y2="66.8242" gradientUnits="userSpaceOnUse">
<stop stop-color="#38190F"/>
<stop offset="1" stop-color="#68390B"/>
</linearGradient>
<linearGradient id="paint17_linear_1_1033" x1="49.3621" y1="75.265" x2="49.3621" y2="66.9712" gradientUnits="userSpaceOnUse">
<stop stop-color="#38190F"/>
<stop offset="1" stop-color="#68390B"/>
</linearGradient>
<linearGradient id="paint18_linear_1_1033" x1="56.5955" y1="75.1542" x2="56.5955" y2="66.8472" gradientUnits="userSpaceOnUse">
<stop stop-color="#38190F"/>
<stop offset="1" stop-color="#68390B"/>
</linearGradient>
<linearGradient id="paint19_linear_1_1033" x1="63.4285" y1="75.1502" x2="63.4285" y2="66.9712" gradientUnits="userSpaceOnUse">
<stop stop-color="#38190F"/>
<stop offset="1" stop-color="#68390B"/>
</linearGradient>
<linearGradient id="paint20_linear_1_1033" x1="67.7594" y1="75.1502" x2="67.7594" y2="66.9712" gradientUnits="userSpaceOnUse">
<stop stop-color="#38190F"/>
<stop offset="1" stop-color="#68390B"/>
</linearGradient>
<linearGradient id="paint21_linear_1_1033" x1="72.704" y1="75.1512" x2="72.704" y2="66.9712" gradientUnits="userSpaceOnUse">
<stop stop-color="#38190F"/>
<stop offset="1" stop-color="#68390B"/>
</linearGradient>
<linearGradient id="paint22_linear_1_1033" x1="79.073" y1="75.1502" x2="79.073" y2="66.9712" gradientUnits="userSpaceOnUse">
<stop stop-color="#38190F"/>
<stop offset="1" stop-color="#68390B"/>
</linearGradient>
<linearGradient id="paint23_linear_1_1033" x1="46.8999" y1="17.1839" x2="47.4863" y2="43.4282" gradientUnits="userSpaceOnUse">
<stop stop-color="#D98E1E"/>
<stop offset="0.029" stop-color="#DA9223"/>
<stop offset="0.065" stop-color="#DE9F32"/>
<stop offset="0.106" stop-color="#E5B54C"/>
<stop offset="0.149" stop-color="#EFD36F"/>
<stop offset="0.193" stop-color="#FBF99C"/>
<stop offset="0.199" stop-color="#FDFFA3"/>
<stop offset="0.351" stop-color="#E9D16E"/>
<stop offset="0.596" stop-color="#C88718"/>
<stop offset="1" stop-color="#FADA50"/>
</linearGradient>
<linearGradient id="paint24_linear_1_1033" x1="44.5397" y1="17.259" x2="44.5611" y2="43.4405" gradientUnits="userSpaceOnUse">
<stop stop-color="#D98E1E"/>
<stop offset="0.029" stop-color="#DA9223"/>
<stop offset="0.065" stop-color="#DE9F32"/>
<stop offset="0.106" stop-color="#E5B54C"/>
<stop offset="0.149" stop-color="#EFD36F"/>
<stop offset="0.193" stop-color="#FBF99C"/>
<stop offset="0.199" stop-color="#FDFFA3"/>
<stop offset="0.351" stop-color="#E9D16E"/>
<stop offset="0.596" stop-color="#C88718"/>
<stop offset="1" stop-color="#FADA50"/>
</linearGradient>
<linearGradient id="paint25_linear_1_1033" x1="44.456" y1="17.1969" x2="46.5528" y2="43.2997" gradientUnits="userSpaceOnUse">
<stop stop-color="#D98E1E"/>
<stop offset="0.029" stop-color="#DA9223"/>
<stop offset="0.065" stop-color="#DE9F32"/>
<stop offset="0.106" stop-color="#E5B54C"/>
<stop offset="0.149" stop-color="#EFD36F"/>
<stop offset="0.193" stop-color="#FBF99C"/>
<stop offset="0.199" stop-color="#FDFFA3"/>
<stop offset="0.351" stop-color="#E9D16E"/>
<stop offset="0.596" stop-color="#C88718"/>
<stop offset="1" stop-color="#FADA50"/>
</linearGradient>
<linearGradient id="paint26_linear_1_1033" x1="41.0684" y1="17.2345" x2="41.107" y2="43.4721" gradientUnits="userSpaceOnUse">
<stop stop-color="#D98E1E"/>
<stop offset="0.029" stop-color="#DA9223"/>
<stop offset="0.065" stop-color="#DE9F32"/>
<stop offset="0.106" stop-color="#E5B54C"/>
<stop offset="0.149" stop-color="#EFD36F"/>
<stop offset="0.193" stop-color="#FBF99C"/>
<stop offset="0.199" stop-color="#FDFFA3"/>
<stop offset="0.351" stop-color="#E9D16E"/>
<stop offset="0.596" stop-color="#C88718"/>
<stop offset="1" stop-color="#FADA50"/>
</linearGradient>
<linearGradient id="paint27_linear_1_1033" x1="43.6155" y1="17.2114" x2="44.1334" y2="43.4508" gradientUnits="userSpaceOnUse">
<stop stop-color="#D98E1E"/>
<stop offset="0.029" stop-color="#DA9223"/>
<stop offset="0.065" stop-color="#DE9F32"/>
<stop offset="0.106" stop-color="#E5B54C"/>
<stop offset="0.149" stop-color="#EFD36F"/>
<stop offset="0.193" stop-color="#FBF99C"/>
<stop offset="0.199" stop-color="#FDFFA3"/>
<stop offset="0.351" stop-color="#E9D16E"/>
<stop offset="0.596" stop-color="#C88718"/>
<stop offset="1" stop-color="#FADA50"/>
</linearGradient>
<linearGradient id="paint28_linear_1_1033" x1="39.4736" y1="17.2459" x2="39.6805" y2="43.4796" gradientUnits="userSpaceOnUse">
<stop stop-color="#D98E1E"/>
<stop offset="0.029" stop-color="#DA9223"/>
<stop offset="0.065" stop-color="#DE9F32"/>
<stop offset="0.106" stop-color="#E5B54C"/>
<stop offset="0.149" stop-color="#EFD36F"/>
<stop offset="0.193" stop-color="#FBF99C"/>
<stop offset="0.199" stop-color="#FDFFA3"/>
<stop offset="0.351" stop-color="#E9D16E"/>
<stop offset="0.596" stop-color="#C88718"/>
<stop offset="1" stop-color="#FADA50"/>
</linearGradient>
<linearGradient id="paint29_linear_1_1033" x1="43.7039" y1="17.2146" x2="43.8647" y2="43.4505" gradientUnits="userSpaceOnUse">
<stop stop-color="#D98E1E"/>
<stop offset="0.029" stop-color="#DA9223"/>
<stop offset="0.065" stop-color="#DE9F32"/>
<stop offset="0.106" stop-color="#E5B54C"/>
<stop offset="0.149" stop-color="#EFD36F"/>
<stop offset="0.193" stop-color="#FBF99C"/>
<stop offset="0.199" stop-color="#FDFFA3"/>
<stop offset="0.351" stop-color="#E9D16E"/>
<stop offset="0.596" stop-color="#C88718"/>
<stop offset="1" stop-color="#FADA50"/>
</linearGradient>
<linearGradient id="paint30_linear_1_1033" x1="39.6231" y1="17.2377" x2="40.3793" y2="43.4624" gradientUnits="userSpaceOnUse">
<stop stop-color="#D98E1E"/>
<stop offset="0.029" stop-color="#DA9223"/>
<stop offset="0.065" stop-color="#DE9F32"/>
<stop offset="0.106" stop-color="#E5B54C"/>
<stop offset="0.149" stop-color="#EFD36F"/>
<stop offset="0.193" stop-color="#FBF99C"/>
<stop offset="0.199" stop-color="#FDFFA3"/>
<stop offset="0.351" stop-color="#E9D16E"/>
<stop offset="0.596" stop-color="#C88718"/>
<stop offset="1" stop-color="#FADA50"/>
</linearGradient>
<linearGradient id="paint31_linear_1_1033" x1="44.8128" y1="17.2001" x2="44.8725" y2="43.452" gradientUnits="userSpaceOnUse">
<stop stop-color="#D98E1E"/>
<stop offset="0.029" stop-color="#DA9223"/>
<stop offset="0.065" stop-color="#DE9F32"/>
<stop offset="0.106" stop-color="#E5B54C"/>
<stop offset="0.149" stop-color="#EFD36F"/>
<stop offset="0.193" stop-color="#FBF99C"/>
<stop offset="0.199" stop-color="#FDFFA3"/>
<stop offset="0.351" stop-color="#E9D16E"/>
<stop offset="0.596" stop-color="#C88718"/>
<stop offset="1" stop-color="#FADA50"/>
</linearGradient>
<linearGradient id="paint32_linear_1_1033" x1="41.009" y1="17.2302" x2="43.3545" y2="43.2809" gradientUnits="userSpaceOnUse">
<stop stop-color="#D98E1E"/>
<stop offset="0.029" stop-color="#DA9223"/>
<stop offset="0.065" stop-color="#DE9F32"/>
<stop offset="0.106" stop-color="#E5B54C"/>
<stop offset="0.149" stop-color="#EFD36F"/>
<stop offset="0.193" stop-color="#FBF99C"/>
<stop offset="0.199" stop-color="#FDFFA3"/>
<stop offset="0.351" stop-color="#E9D16E"/>
<stop offset="0.596" stop-color="#C88718"/>
<stop offset="1" stop-color="#FADA50"/>
</linearGradient>
<linearGradient id="paint33_linear_1_1033" x1="44.3498" y1="17.2036" x2="44.8569" y2="43.4448" gradientUnits="userSpaceOnUse">
<stop stop-color="#D98E1E"/>
<stop offset="0.029" stop-color="#DA9223"/>
<stop offset="0.065" stop-color="#DE9F32"/>
<stop offset="0.106" stop-color="#E5B54C"/>
<stop offset="0.149" stop-color="#EFD36F"/>
<stop offset="0.193" stop-color="#FBF99C"/>
<stop offset="0.199" stop-color="#FDFFA3"/>
<stop offset="0.351" stop-color="#E9D16E"/>
<stop offset="0.596" stop-color="#C88718"/>
<stop offset="1" stop-color="#FADA50"/>
</linearGradient>
<linearGradient id="paint34_linear_1_1033" x1="543.621" y1="17.1839" x2="544.198" y2="43.4285" gradientUnits="userSpaceOnUse">
<stop stop-color="#D98E1E"/>
<stop offset="0.029" stop-color="#DA9223"/>
<stop offset="0.065" stop-color="#DE9F32"/>
<stop offset="0.106" stop-color="#E5B54C"/>
<stop offset="0.149" stop-color="#EFD36F"/>
<stop offset="0.193" stop-color="#FBF99C"/>
<stop offset="0.199" stop-color="#FDFFA3"/>
<stop offset="0.351" stop-color="#E9D16E"/>
<stop offset="0.596" stop-color="#C88718"/>
<stop offset="1" stop-color="#FADA50"/>
</linearGradient>
<linearGradient id="paint35_linear_1_1033" x1="542.203" y1="17.2593" x2="542.225" y2="43.4404" gradientUnits="userSpaceOnUse">
<stop stop-color="#D98E1E"/>
<stop offset="0.029" stop-color="#DA9223"/>
<stop offset="0.065" stop-color="#DE9F32"/>
<stop offset="0.106" stop-color="#E5B54C"/>
<stop offset="0.149" stop-color="#EFD36F"/>
<stop offset="0.193" stop-color="#FBF99C"/>
<stop offset="0.199" stop-color="#FDFFA3"/>
<stop offset="0.351" stop-color="#E9D16E"/>
<stop offset="0.596" stop-color="#C88718"/>
<stop offset="1" stop-color="#FADA50"/>
</linearGradient>
<linearGradient id="paint36_linear_1_1033" x1="542.34" y1="17.1969" x2="544.441" y2="43.299" gradientUnits="userSpaceOnUse">
<stop stop-color="#D98E1E"/>
<stop offset="0.029" stop-color="#DA9223"/>
<stop offset="0.065" stop-color="#DE9F32"/>
<stop offset="0.106" stop-color="#E5B54C"/>
<stop offset="0.149" stop-color="#EFD36F"/>
<stop offset="0.193" stop-color="#FBF99C"/>
<stop offset="0.199" stop-color="#FDFFA3"/>
<stop offset="0.351" stop-color="#E9D16E"/>
<stop offset="0.596" stop-color="#C88718"/>
<stop offset="1" stop-color="#FADA50"/>
</linearGradient>
<linearGradient id="paint37_linear_1_1033" x1="538.748" y1="17.2345" x2="538.785" y2="43.4721" gradientUnits="userSpaceOnUse">
<stop stop-color="#D98E1E"/>
<stop offset="0.029" stop-color="#DA9223"/>
<stop offset="0.065" stop-color="#DE9F32"/>
<stop offset="0.106" stop-color="#E5B54C"/>
<stop offset="0.149" stop-color="#EFD36F"/>
<stop offset="0.193" stop-color="#FBF99C"/>
<stop offset="0.199" stop-color="#FDFFA3"/>
<stop offset="0.351" stop-color="#E9D16E"/>
<stop offset="0.596" stop-color="#C88718"/>
<stop offset="1" stop-color="#FADA50"/>
</linearGradient>
<linearGradient id="paint38_linear_1_1033" x1="541.216" y1="17.2114" x2="541.733" y2="43.4508" gradientUnits="userSpaceOnUse">
<stop stop-color="#D98E1E"/>
<stop offset="0.029" stop-color="#DA9223"/>
<stop offset="0.065" stop-color="#DE9F32"/>
<stop offset="0.106" stop-color="#E5B54C"/>
<stop offset="0.149" stop-color="#EFD36F"/>
<stop offset="0.193" stop-color="#FBF99C"/>
<stop offset="0.199" stop-color="#FDFFA3"/>
<stop offset="0.351" stop-color="#E9D16E"/>
<stop offset="0.596" stop-color="#C88718"/>
<stop offset="1" stop-color="#FADA50"/>
</linearGradient>
<linearGradient id="paint39_linear_1_1033" x1="537.168" y1="17.2459" x2="537.375" y2="43.4796" gradientUnits="userSpaceOnUse">
<stop stop-color="#D98E1E"/>
<stop offset="0.029" stop-color="#DA9223"/>
<stop offset="0.065" stop-color="#DE9F32"/>
<stop offset="0.106" stop-color="#E5B54C"/>
<stop offset="0.149" stop-color="#EFD36F"/>
<stop offset="0.193" stop-color="#FBF99C"/>
<stop offset="0.199" stop-color="#FDFFA3"/>
<stop offset="0.351" stop-color="#E9D16E"/>
<stop offset="0.596" stop-color="#C88718"/>
<stop offset="1" stop-color="#FADA50"/>
</linearGradient>
<linearGradient id="paint40_linear_1_1033" x1="541.442" y1="17.2146" x2="541.598" y2="43.4504" gradientUnits="userSpaceOnUse">
<stop stop-color="#D98E1E"/>
<stop offset="0.029" stop-color="#DA9223"/>
<stop offset="0.065" stop-color="#DE9F32"/>
<stop offset="0.106" stop-color="#E5B54C"/>
<stop offset="0.149" stop-color="#EFD36F"/>
<stop offset="0.193" stop-color="#FBF99C"/>
<stop offset="0.199" stop-color="#FDFFA3"/>
<stop offset="0.351" stop-color="#E9D16E"/>
<stop offset="0.596" stop-color="#C88718"/>
<stop offset="1" stop-color="#FADA50"/>
</linearGradient>
<linearGradient id="paint41_linear_1_1033" x1="537.172" y1="17.2413" x2="537.914" y2="43.4597" gradientUnits="userSpaceOnUse">
<stop stop-color="#D98E1E"/>
<stop offset="0.029" stop-color="#DA9223"/>
<stop offset="0.065" stop-color="#DE9F32"/>
<stop offset="0.106" stop-color="#E5B54C"/>
<stop offset="0.149" stop-color="#EFD36F"/>
<stop offset="0.193" stop-color="#FBF99C"/>
<stop offset="0.199" stop-color="#FDFFA3"/>
<stop offset="0.351" stop-color="#E9D16E"/>
<stop offset="0.596" stop-color="#C88718"/>
<stop offset="1" stop-color="#FADA50"/>
</linearGradient>
<linearGradient id="paint42_linear_1_1033" x1="542.45" y1="17.2001" x2="542.511" y2="43.452" gradientUnits="userSpaceOnUse">
<stop stop-color="#D98E1E"/>
<stop offset="0.029" stop-color="#DA9223"/>
<stop offset="0.065" stop-color="#DE9F32"/>
<stop offset="0.106" stop-color="#E5B54C"/>
<stop offset="0.149" stop-color="#EFD36F"/>
<stop offset="0.193" stop-color="#FBF99C"/>
<stop offset="0.199" stop-color="#FDFFA3"/>
<stop offset="0.351" stop-color="#E9D16E"/>
<stop offset="0.596" stop-color="#C88718"/>
<stop offset="1" stop-color="#FADA50"/>
</linearGradient>
<linearGradient id="paint43_linear_1_1033" x1="537.515" y1="17.2302" x2="539.834" y2="43.2852" gradientUnits="userSpaceOnUse">
<stop stop-color="#D98E1E"/>
<stop offset="0.029" stop-color="#DA9223"/>
<stop offset="0.065" stop-color="#DE9F32"/>
<stop offset="0.106" stop-color="#E5B54C"/>
<stop offset="0.149" stop-color="#EFD36F"/>
<stop offset="0.193" stop-color="#FBF99C"/>
<stop offset="0.199" stop-color="#FDFFA3"/>
<stop offset="0.351" stop-color="#E9D16E"/>
<stop offset="0.596" stop-color="#C88718"/>
<stop offset="1" stop-color="#FADA50"/>
</linearGradient>
<linearGradient id="paint44_linear_1_1033" x1="542.005" y1="17.2036" x2="542.523" y2="43.4445" gradientUnits="userSpaceOnUse">
<stop stop-color="#D98E1E"/>
<stop offset="0.029" stop-color="#DA9223"/>
<stop offset="0.065" stop-color="#DE9F32"/>
<stop offset="0.106" stop-color="#E5B54C"/>
<stop offset="0.149" stop-color="#EFD36F"/>
<stop offset="0.193" stop-color="#FBF99C"/>
<stop offset="0.199" stop-color="#FDFFA3"/>
<stop offset="0.351" stop-color="#E9D16E"/>
<stop offset="0.596" stop-color="#C88718"/>
<stop offset="1" stop-color="#FADA50"/>
</linearGradient>
<linearGradient id="paint45_linear_1_1033" x1="60.3" y1="90.785" x2="60.3" y2="83.561" gradientUnits="userSpaceOnUse">
<stop stop-color="#68390B"/>
<stop offset="1" stop-color="#AB6F16"/>
</linearGradient>
<linearGradient id="paint46_linear_1_1033" x1="69.0291" y1="90.0678" x2="69.0291" y2="84.2778" gradientUnits="userSpaceOnUse">
<stop stop-color="#68390B"/>
<stop offset="1" stop-color="#AB6F16"/>
</linearGradient>
<linearGradient id="paint47_linear_1_1033" x1="76.5555" y1="89.3511" x2="76.5555" y2="84.9971" gradientUnits="userSpaceOnUse">
<stop stop-color="#68390B"/>
<stop offset="1" stop-color="#AB6F16"/>
</linearGradient>
<linearGradient id="paint48_linear_1_1033" x1="1185.66" y1="90.0678" x2="1185.66" y2="84.2778" gradientUnits="userSpaceOnUse">
<stop stop-color="#68390B"/>
<stop offset="1" stop-color="#AB6F16"/>
</linearGradient>
<linearGradient id="paint49_linear_1_1033" x1="1193.06" y1="89.3511" x2="1193.06" y2="84.9971" gradientUnits="userSpaceOnUse">
<stop stop-color="#68390B"/>
<stop offset="1" stop-color="#AB6F16"/>
</linearGradient>
<linearGradient id="paint50_linear_1_1033" x1="31.9533" y1="89.3971" x2="31.9533" y2="64.062" gradientUnits="userSpaceOnUse">
<stop stop-color="#68390B"/>
<stop offset="1" stop-color="#AB6F16"/>
</linearGradient>
<linearGradient id="paint51_linear_1_1033" x1="60.2303" y1="38.6561" x2="60.2303" y2="15.2939" gradientUnits="userSpaceOnUse">
<stop stop-color="#68390B"/>
<stop offset="1" stop-color="#AB6F16"/>
</linearGradient>
<linearGradient id="paint52_linear_1_1033" x1="88.5113" y1="89.397" x2="88.5113" y2="64.0649" gradientUnits="userSpaceOnUse">
<stop stop-color="#68390B"/>
<stop offset="1" stop-color="#AB6F16"/>
</linearGradient>
<radialGradient id="paint53_radial_1_1033" cx="0" cy="0" r="1" gradientUnits="userSpaceOnUse" gradientTransform="translate(144.251 371.925) rotate(48.2293) scale(8.32202 4.70794)">
<stop stop-color="white"/>
<stop offset="0.056" stop-color="#E5E5E5"/>
<stop offset="0.2" stop-color="#A9A9A9"/>
<stop offset="0.344" stop-color="#757575"/>
<stop offset="0.484" stop-color="#4B4B4B"/>
<stop offset="0.619" stop-color="#2A2A2A"/>
<stop offset="0.748" stop-color="#131313"/>
<stop offset="0.868" stop-color="#040404"/>
<stop offset="0.971"/>
</radialGradient>
<radialGradient id="paint54_radial_1_1033" cx="0" cy="0" r="1" gradientUnits="userSpaceOnUse" gradientTransform="translate(200.82 309.431) rotate(48.4589) scale(8.15777 4.81159)">
<stop stop-color="white"/>
<stop offset="0.056" stop-color="#E5E5E5"/>
<stop offset="0.2" stop-color="#A9A9A9"/>
<stop offset="0.344" stop-color="#757575"/>
<stop offset="0.484" stop-color="#4B4B4B"/>
<stop offset="0.619" stop-color="#2A2A2A"/>
<stop offset="0.748" stop-color="#131313"/>
<stop offset="0.868" stop-color="#040404"/>
<stop offset="0.971"/>
</radialGradient>
<clipPath id="clip0_1_1033">
<rect width="120.462" height="104.692" fill="white"/>
</clipPath>
</defs>
</svg>
